<svg width="472" height="106" viewBox="0 0 472 106" fill="none" xmlns="http://www.w3.org/2000/svg">
<mask id="mask0_413_156" style="mask-type:luminance" maskUnits="userSpaceOnUse" x="27" y="0" width="107" height="106">
<path d="M27.7601 0H133.078V105.232H27.7601V0Z" fill="white"/>
</mask>
<g mask="url(#mask0_413_156)">
<mask id="mask1_413_156" style="mask-type:luminance" maskUnits="userSpaceOnUse" x="28" y="0" width="106" height="106">
<path d="M28.076 52.5045C28.076 81.4959 51.5786 105.002 80.5736 105.002C109.565 105.002 133.071 81.4959 133.071 52.5045C133.071 23.5095 109.565 0.00341797 80.5736 0.00341797C51.5786 0.00341797 28.076 23.5095 28.076 52.5045Z" fill="white"/>
</mask>
<g mask="url(#mask1_413_156)">
<mask id="mask2_413_156" style="mask-type:luminance" maskUnits="userSpaceOnUse" x="27" y="-1" width="107" height="107">
<path d="M133.416 -0.452637H27.7314V105.232H133.416V-0.452637Z" fill="white"/>
</mask>
<g mask="url(#mask2_413_156)">
<mask id="mask3_413_156" style="mask-type:luminance" maskUnits="userSpaceOnUse" x="28" y="0" width="106" height="106">
<path d="M28.0259 0H133.078V105.16H28.0259V0Z" fill="white"/>
</mask>
<g mask="url(#mask3_413_156)">
<mask id="mask4_413_156" style="mask-type:luminance" maskUnits="userSpaceOnUse" x="28" y="0" width="106" height="106">
<path d="M28.076 52.5045C28.076 81.4959 51.5786 105.002 80.5736 105.002C109.565 105.002 133.071 81.4959 133.071 52.5045C133.071 23.5095 109.565 0.00341797 80.5736 0.00341797C51.5786 0.00341797 28.076 23.5095 28.076 52.5045Z" fill="white"/>
</mask>
<g mask="url(#mask4_413_156)">
<path d="M328.702 -148.87H-167.555V347.387H328.702V-148.87Z" fill="#E5362C"/>
</g>
</g>
</g>
</g>
</g>
<mask id="mask5_413_156" style="mask-type:luminance" maskUnits="userSpaceOnUse" x="0" y="26" width="101" height="53">
<path d="M0 26.5322H100.012V78.581H0V26.5322Z" fill="white"/>
</mask>
<g mask="url(#mask5_413_156)">
<mask id="mask6_413_156" style="mask-type:luminance" maskUnits="userSpaceOnUse" x="0" y="26" width="101" height="53">
<path d="M28.4205 27.2431C25.2902 26.8698 22.1455 26.7154 18.9937 26.658C17.7013 26.6329 16.409 26.7047 15.1131 26.7621C12.4423 26.8877 9.79297 27.2108 7.17599 27.7996C5.00415 28.2914 2.88975 28.9591 0.900986 29.9714C0.678417 30.0863 0.448669 30.1976 0.24046 30.3411C-0.0574954 30.5386 -0.0790341 30.894 0.193792 31.1273C0.380463 31.2924 0.599442 31.4325 0.82919 31.533C1.23843 31.7125 1.65844 31.8704 2.08922 32.0032C3.43899 32.4053 4.82466 32.6422 6.2211 32.8325C9.03552 33.213 11.8715 33.4033 14.7146 33.5002C16.2044 33.554 17.6906 33.6438 19.1696 33.8376C21.9625 34.193 24.723 34.7171 27.4405 35.4423C27.9251 35.5715 29.0021 35.9125 29.0775 35.9305C29.1313 35.9413 29.1852 35.9628 29.2354 35.9772C32.3945 36.9464 35.435 38.1705 38.2387 39.9367C40.1341 41.1286 41.8536 42.5286 43.2214 44.3127C44.1619 45.5404 45.0163 46.8292 45.5583 48.2974C45.8312 49.0441 46.0035 49.8051 46.043 50.5985C46.1219 52.1313 45.7019 53.4847 44.686 54.6478C43.3506 56.1699 42.0762 57.7458 40.8485 59.3612C39.9115 60.5925 39.0033 61.8418 38.2172 63.1772C37.9479 63.6367 37.7146 64.1213 37.4776 64.5988C37.3915 64.7747 37.3305 64.9649 37.273 65.1516C37.212 65.3598 37.2838 65.5465 37.4561 65.6721C37.6284 65.7978 37.833 65.7978 38.0125 65.6937C38.1848 65.5932 38.332 65.4639 38.4936 65.3491C39.3803 64.7029 40.3064 64.1106 41.3044 63.6547C41.8931 63.3818 42.4998 63.1593 43.1424 63.0588C44.1368 62.9116 45.0378 62.549 45.8347 61.9351C45.9712 61.831 46.1112 61.7377 46.2548 61.648C46.5312 61.4756 46.6712 61.5331 46.7143 61.8454C46.7537 62.0931 46.7789 62.348 46.7896 62.5957C46.8291 63.3962 47.023 64.1608 47.425 64.8501C48.2722 66.2968 48.5702 67.8871 48.6851 69.5276C48.7102 69.865 48.7102 70.2025 48.7425 70.5399C48.7569 70.7015 48.7999 70.8702 48.8681 71.021C48.983 71.2723 49.2989 71.3189 49.5107 71.1502C49.6723 71.021 49.762 70.8451 49.8553 70.6728C50.1928 70.0553 50.4548 69.4056 50.681 68.7378C51.4672 66.4763 52.0128 64.1501 52.5154 61.8167C52.7416 60.772 52.9534 59.7238 53.1472 58.6756C53.4559 56.9596 54.4072 55.6996 55.8647 54.795C56.7801 54.2278 57.7817 53.8293 58.8407 53.657C60.4202 53.3986 62.0141 53.2226 63.6259 53.3591C65.4639 53.5098 67.2337 53.9227 68.9639 54.5329C71.7676 55.5201 74.3594 56.9238 76.8328 58.5499C80.5806 61.0161 84.0017 63.888 87.1141 67.1152C88.13 68.1671 89.0454 69.3122 90.0326 70.3928C91.9855 72.5323 93.9922 74.6216 96.2178 76.4883C96.8425 77.0088 97.503 77.4934 98.1994 77.9206C98.5835 78.1575 98.9892 78.3514 99.4343 78.4375C99.7861 78.5057 100.052 78.2616 99.9943 77.9027C99.8543 76.9872 99.6282 76.0862 99.3518 75.1959C98.5907 72.7405 97.4958 70.4358 96.1891 68.2245C94.3404 65.0942 92.1685 62.1936 89.7957 59.4402C84.7986 53.6498 79.2021 48.4949 73.1748 43.7922C71.7676 42.6901 70.1701 42.1696 68.4362 41.9937C66.487 41.7998 64.5592 41.965 62.6602 42.4245C62.3336 42.5035 61.9997 42.5717 61.6623 42.5358C61.3966 42.507 61.2602 42.3563 61.253 42.0942C61.2458 41.807 61.332 41.545 61.4397 41.2793C61.8382 40.3173 62.1935 39.3372 62.6243 38.3931C63.0479 37.4598 63.0372 36.5479 62.6566 35.6182C62.391 34.9684 62.1218 34.3294 62.0105 33.6187C61.8992 32.9294 61.4289 32.4161 60.9443 31.9386C60.8222 31.8166 60.6571 31.7627 60.4848 31.7484C59.6914 31.7053 58.9053 31.7232 58.2124 32.2007C57.954 32.3766 57.656 32.4627 57.3581 32.5489C56.9811 32.6566 56.597 32.7607 56.2344 32.9007C55.5237 33.1699 54.9852 33.6294 54.6226 34.3115C54.0949 35.3059 53.5385 36.2859 52.9964 37.2659C52.8421 37.5423 52.6841 37.8008 52.4149 37.9767C52.2498 38.0808 52.099 38.0628 51.9518 37.948C51.6754 37.729 51.5426 37.4131 51.399 37.108C50.6989 35.6218 49.8087 34.2612 48.7533 33.0048C48.1717 32.3155 47.5255 31.6873 46.8076 31.1489C45.9173 30.4811 44.9516 30.0001 43.8639 29.7381" fill="white"/>
</mask>
<g mask="url(#mask6_413_156)">
<mask id="mask7_413_156" style="mask-type:luminance" maskUnits="userSpaceOnUse" x="-1" y="26" width="102" height="53">
<path d="M100.332 26.1982H-0.757446V78.5809H100.332V26.1982Z" fill="white"/>
</mask>
<g mask="url(#mask7_413_156)">
<mask id="mask8_413_156" style="mask-type:luminance" maskUnits="userSpaceOnUse" x="0" y="26" width="101" height="53">
<path d="M0 26.5322H100.012V78.581H0V26.5322Z" fill="white"/>
</mask>
<g mask="url(#mask8_413_156)">
<mask id="mask9_413_156" style="mask-type:luminance" maskUnits="userSpaceOnUse" x="0" y="26" width="101" height="53">
<path d="M28.4205 27.2431C25.2902 26.8698 22.1455 26.7154 18.9937 26.658C17.7013 26.6329 16.409 26.7047 15.1131 26.7621C12.4423 26.8877 9.79297 27.2108 7.17599 27.7996C5.00415 28.2914 2.88975 28.9591 0.900987 29.9714C0.678418 30.0863 0.448669 30.1976 0.24046 30.3411C-0.057495 30.5386 -0.0790344 30.894 0.193792 31.1273C0.380462 31.2924 0.599441 31.4325 0.82919 31.533C1.23843 31.7125 1.65844 31.8704 2.08922 32.0032C3.43899 32.4053 4.82466 32.6422 6.2211 32.8325C9.03552 33.213 11.8715 33.4033 14.7146 33.5002C16.2044 33.554 17.6906 33.6438 19.1696 33.8376C21.9625 34.193 24.723 34.7171 27.4405 35.4423C27.9251 35.5715 29.0021 35.9125 29.0775 35.9305C29.1313 35.9413 29.1852 35.9628 29.2354 35.9772C32.3945 36.9464 35.435 38.1705 38.2387 39.9367C40.1341 41.1286 41.8536 42.5286 43.2214 44.3127C44.1619 45.5404 45.0163 46.8292 45.5583 48.2974C45.8312 49.0441 46.0035 49.8051 46.043 50.5985C46.1219 52.1313 45.7019 53.4847 44.686 54.6478C43.3506 56.1699 42.0762 57.7458 40.8485 59.3612C39.9115 60.5925 39.0033 61.8418 38.2172 63.1772C37.9479 63.6367 37.7146 64.1213 37.4776 64.5988C37.3915 64.7747 37.3305 64.9649 37.273 65.1516C37.212 65.3598 37.2838 65.5465 37.4561 65.6721C37.6284 65.7978 37.833 65.7978 38.0125 65.6937C38.1848 65.5932 38.332 65.4639 38.4936 65.3491C39.3803 64.7029 40.3064 64.1106 41.3044 63.6547C41.8931 63.3818 42.4998 63.1593 43.1424 63.0588C44.1368 62.9116 45.0378 62.549 45.8347 61.9351C45.9712 61.831 46.1112 61.7377 46.2548 61.648C46.5312 61.4756 46.6712 61.5331 46.7143 61.8454C46.7537 62.0931 46.7789 62.348 46.7896 62.5957C46.8291 63.3962 47.023 64.1608 47.425 64.8501C48.2722 66.2968 48.5702 67.8871 48.6851 69.5276C48.7102 69.865 48.7102 70.2025 48.7425 70.5399C48.7569 70.7015 48.7999 70.8702 48.8681 71.021C48.983 71.2723 49.2989 71.3189 49.5107 71.1502C49.6723 71.021 49.762 70.8451 49.8553 70.6728C50.1928 70.0553 50.4548 69.4056 50.681 68.7378C51.4672 66.4763 52.0128 64.1501 52.5154 61.8167C52.7416 60.772 52.9534 59.7238 53.1472 58.6756C53.4559 56.9596 54.4072 55.6996 55.8647 54.795C56.7801 54.2278 57.7817 53.8293 58.8407 53.657C60.4202 53.3986 62.0141 53.2226 63.6259 53.3591C65.4639 53.5098 67.2337 53.9227 68.9639 54.5329C71.7676 55.5201 74.3594 56.9238 76.8328 58.5499C80.5806 61.0161 84.0017 63.888 87.1141 67.1152C88.13 68.1671 89.0454 69.3122 90.0326 70.3928C91.9855 72.5323 93.9922 74.6216 96.2178 76.4883C96.8425 77.0088 97.503 77.4934 98.1994 77.9206C98.5835 78.1575 98.9892 78.3514 99.4343 78.4375C99.7861 78.5057 100.052 78.2616 99.9943 77.9027C99.8543 76.9872 99.6282 76.0862 99.3518 75.1959C98.5907 72.7405 97.4958 70.4358 96.1891 68.2245C94.3404 65.0942 92.1685 62.1936 89.7957 59.4402C84.7986 53.6498 79.2021 48.4949 73.1748 43.7922C71.7676 42.6901 70.1701 42.1696 68.4362 41.9937C66.487 41.7998 64.5592 41.965 62.6602 42.4245C62.3336 42.5035 61.9997 42.5717 61.6623 42.5358C61.3966 42.507 61.2602 42.3563 61.253 42.0942C61.2458 41.807 61.332 41.545 61.4397 41.2793C61.8382 40.3173 62.1935 39.3372 62.6243 38.3931C63.0479 37.4598 63.0372 36.5479 62.6566 35.6182C62.391 34.9684 62.1218 34.3294 62.0105 33.6187C61.8992 32.9294 61.4289 32.4161 60.9443 31.9386C60.8222 31.8166 60.6571 31.7627 60.4848 31.7484C59.6914 31.7053 58.9053 31.7232 58.2124 32.2007C57.954 32.3766 57.656 32.4627 57.3581 32.5489C56.9811 32.6566 56.597 32.7607 56.2344 32.9007C55.5237 33.1699 54.9852 33.6294 54.6226 34.3115C54.0949 35.3059 53.5385 36.2859 52.9964 37.2659C52.8421 37.5423 52.6841 37.8008 52.4149 37.9767C52.2498 38.0808 52.099 38.0628 51.9518 37.948C51.6754 37.729 51.5426 37.4131 51.399 37.108C50.6989 35.6218 49.8087 34.2612 48.7533 33.0048C48.1717 32.3155 47.5255 31.6873 46.8076 31.1489C45.9173 30.4811 44.9516 30.0001 43.8639 29.7381" fill="white"/>
</mask>
<g mask="url(#mask9_413_156)">
<path d="M328.702 -148.87H-167.555V347.386H328.702V-148.87Z" fill="#FDFDFD"/>
</g>
</g>
</g>
</g>
</g>
<mask id="mask10_413_156" style="mask-type:luminance" maskUnits="userSpaceOnUse" x="153" y="0" width="319" height="105">
<path d="M471.901 0.88623H153.078V104.345H471.901V0.88623Z" fill="white"/>
</mask>
<g mask="url(#mask10_413_156)">
<mask id="mask11_413_156" style="mask-type:luminance" maskUnits="userSpaceOnUse" x="153" y="16" width="38" height="42">
<path d="M153.585 16.7222H190.028V57.8947H153.585V16.7222Z" fill="white"/>
</mask>
<g mask="url(#mask11_413_156)">
<path d="M167.109 24.5415H153.978V16.8052H189.74V24.5415H176.61V57.8457H167.109V24.5415Z" fill="white"/>
</g>
<path d="M232.182 50.2249V57.8457H200.411V16.8052H231.423V24.4261H209.847V33.3336H228.899V40.7235H209.847V50.2249H232.182Z" fill="white"/>
<path d="M245.317 16.8052H254.818V50.1094H275.388V57.8457H245.317V16.8052Z" fill="white"/>
<path d="M299.77 58.555C296.525 58.555 293.391 58.1137 290.368 57.2353C287.341 56.357 284.912 55.2147 283.077 53.8043L286.294 46.6453C288.05 47.9319 290.141 48.9712 292.562 49.7629C294.991 50.5465 297.416 50.9341 299.836 50.9341C302.529 50.9341 304.521 50.5341 305.808 49.7299C307.103 48.9299 307.754 47.8618 307.754 46.5298C307.754 45.5525 307.367 44.7442 306.599 44.105C305.841 43.4576 304.859 42.9421 303.663 42.5544C302.476 42.1585 300.867 41.7255 298.847 41.2513C295.713 40.5173 293.147 39.7791 291.16 39.0409C289.168 38.2945 287.457 37.1027 286.03 35.4614C284.599 33.8119 283.885 31.618 283.885 28.8797C283.885 26.5044 284.529 24.3518 285.815 22.4135C287.11 20.4795 289.057 18.9454 291.655 17.8113C294.261 16.6814 297.436 16.1123 301.189 16.1123C303.804 16.1123 306.36 16.4257 308.859 17.0525C311.367 17.6711 313.552 18.566 315.425 19.7413L312.505 26.9498C308.711 24.8054 304.917 23.7332 301.123 23.7332C298.459 23.7332 296.492 24.1621 295.218 25.0198C293.952 25.8776 293.321 27.0116 293.321 28.4179C293.321 29.8282 294.051 30.8716 295.515 31.552C296.987 32.2366 299.23 32.9129 302.245 33.5809C305.366 34.3191 307.923 35.0614 309.915 35.8078C311.903 36.546 313.614 37.7172 315.045 39.3213C316.472 40.9296 317.19 43.0947 317.19 45.8205C317.19 48.1752 316.534 50.3197 315.227 52.2537C313.915 54.1919 311.952 55.726 309.338 56.856C306.719 57.9859 303.531 58.555 299.77 58.555Z" fill="white"/>
<path d="M344.209 41.7297L338.7 47.4701V57.8457H329.264V16.8052H338.7V35.9728L356.877 16.8052H367.435L350.428 35.0986L368.424 57.8457H357.339L344.209 41.7297Z" fill="white"/>
<path d="M398.091 58.555C393.823 58.555 389.979 57.6395 386.561 55.8002C383.138 53.9651 380.461 51.4372 378.527 48.2124C376.601 44.9793 375.641 41.3503 375.641 37.3254C375.641 33.3005 376.601 29.6798 378.527 26.4549C380.461 23.2342 383.138 20.7063 386.561 18.867C389.979 17.0319 393.823 16.1123 398.091 16.1123C402.347 16.1123 406.174 17.0319 409.572 18.867C412.978 20.7063 415.658 23.2342 417.605 26.4549C419.56 29.6798 420.541 33.3005 420.541 37.3254C420.541 41.3503 419.56 44.9793 417.605 48.2124C415.658 51.4372 412.978 53.9651 409.572 55.8002C406.174 57.6395 402.347 58.555 398.091 58.555ZM398.091 50.4557C400.507 50.4557 402.697 49.9031 404.656 48.7897C406.611 47.6804 408.145 46.1298 409.258 44.138C410.368 42.1379 410.924 39.8657 410.924 37.3254C410.924 34.7851 410.368 32.5211 409.258 30.5293C408.145 28.5416 406.611 26.991 404.656 25.8776C402.697 24.7559 400.507 24.1951 398.091 24.1951C395.658 24.1951 393.464 24.7559 391.509 25.8776C389.563 26.991 388.029 28.5416 386.907 30.5293C385.794 32.5211 385.241 34.7851 385.241 37.3254C385.241 39.8657 385.794 42.1379 386.907 44.138C388.029 46.1298 389.563 47.6804 391.509 48.7897C393.464 49.9031 395.658 50.4557 398.091 50.4557Z" fill="white"/>
<path d="M442.762 24.4261V35.28H461.748V42.9009H442.762V57.8457H433.26V16.8052H464.272V24.4261H442.762Z" fill="white"/>
<path d="M173.049 82.2956H167.292V80.2007H181.181V82.2956H175.424V96.993H173.049V82.2956Z" fill="white"/>
<path d="M198.081 96.993L194.469 91.8299C194.015 91.8629 193.665 91.8794 193.413 91.8794H189.256V96.993H186.864V80.2007H193.413C195.578 80.2007 197.281 80.7244 198.527 81.7677C199.78 82.8028 200.407 84.2338 200.407 86.0566C200.407 87.3556 200.085 88.4608 199.45 89.3721C198.811 90.2876 197.9 90.9474 196.712 91.3516L200.704 96.993H198.081ZM193.331 89.8505C194.848 89.8505 196.007 89.5206 196.811 88.8608C197.611 88.201 198.015 87.269 198.015 86.0566C198.015 84.8359 197.611 83.908 196.811 83.2688C196.007 82.6214 194.848 82.2956 193.331 82.2956H189.256V89.8505H193.331Z" fill="white"/>
<path d="M218.058 92.8032H209.134L207.287 96.993H204.829L212.417 80.2007H214.792L222.43 96.993H219.906L218.058 92.8032ZM217.217 90.8732L213.605 82.6585L209.976 90.8732H217.217Z" fill="white"/>
<path d="M242.576 80.2007L235.202 96.993H232.827L225.454 80.2007H228.043L234.081 93.9908L240.168 80.2007H242.576Z" fill="white"/>
<path d="M260.313 94.9146V96.993H248.139V80.2007H259.983V82.2956H250.531V87.4422H258.944V89.4876H250.531V94.9146H260.313Z" fill="white"/>
<path d="M267.277 80.2007H269.669V94.9146H278.758V96.993H267.277V80.2007Z" fill="white"/>
<path d="M306.386 97.257L304.159 95.0301C302.674 96.4734 300.802 97.191 298.55 97.191C297.429 97.191 296.414 97.0095 295.515 96.6466C294.624 96.2755 293.923 95.7559 293.42 95.0961C292.913 94.428 292.661 93.6692 292.661 92.8197C292.661 91.797 292.975 90.8897 293.602 90.0979C294.237 89.3062 295.288 88.4938 296.752 87.6566C296.014 86.9308 295.49 86.271 295.185 85.6772C294.876 85.0833 294.723 84.4689 294.723 83.8297C294.723 82.6998 295.136 81.7843 295.96 81.0915C296.785 80.3986 297.882 80.0522 299.26 80.0522C300.546 80.0522 301.561 80.3657 302.311 80.9925C303.058 81.6193 303.433 82.4771 303.433 83.5658C303.433 84.4153 303.157 85.1741 302.608 85.8421C302.056 86.5143 301.144 87.2195 299.87 87.9535L304.01 92.0774C304.493 91.166 304.839 90.1474 305.049 89.0257L306.897 89.6361C306.6 91.1 306.109 92.3743 305.429 93.463L307.689 95.7229L306.386 97.257ZM299.26 81.7348C298.509 81.7348 297.923 81.9286 297.495 82.3121C297.074 82.6874 296.868 83.1781 296.868 83.7802C296.868 84.2091 296.983 84.6297 297.214 85.0339C297.445 85.4297 297.895 85.97 298.567 86.6504C299.664 86.036 300.422 85.504 300.843 85.0504C301.272 84.6009 301.486 84.1101 301.486 83.5823C301.486 83.0214 301.288 82.576 300.893 82.2461C300.505 81.908 299.961 81.7348 299.26 81.7348ZM298.682 95.261C300.352 95.261 301.721 94.7332 302.79 93.6775L298.022 88.9268C296.868 89.5783 296.059 90.1763 295.598 90.7248C295.144 91.2774 294.921 91.8918 294.921 92.5723C294.921 93.3764 295.268 94.0239 295.96 94.5187C296.662 95.0136 297.569 95.261 298.682 95.261Z" fill="white"/>
<path d="M326.487 82.2956H320.731V80.2007H334.62V82.2956H328.863V96.993H326.487V82.2956Z" fill="white"/>
<path d="M347.874 97.1912C346.179 97.1912 344.649 96.8201 343.288 96.0696C341.936 95.3231 340.868 94.2963 340.088 92.9849C339.317 91.6777 338.934 90.2137 338.934 88.5971C338.934 86.9806 339.317 85.5207 340.088 84.2094C340.868 82.9021 341.936 81.8794 343.288 81.1412C344.649 80.3948 346.179 80.0195 347.874 80.0195C349.557 80.0195 351.074 80.3948 352.427 81.1412C353.788 81.8794 354.856 82.9021 355.627 84.2094C356.394 85.5084 356.782 86.9723 356.782 88.5971C356.782 90.2261 356.394 91.6942 355.627 93.0014C354.856 94.3004 353.788 95.3231 352.427 96.0696C351.074 96.8201 349.557 97.1912 347.874 97.1912ZM347.874 95.0468C349.103 95.0468 350.208 94.7664 351.19 94.2056C352.179 93.6447 352.955 92.8777 353.516 91.8962C354.085 90.9189 354.373 89.8178 354.373 88.5971C354.373 87.3889 354.085 86.296 353.516 85.3146C352.955 84.3248 352.179 83.5495 351.19 82.9887C350.208 82.4279 349.103 82.1474 347.874 82.1474C346.641 82.1474 345.524 82.4279 344.526 82.9887C343.523 83.5495 342.736 84.3248 342.167 85.3146C341.606 86.296 341.325 87.3889 341.325 88.5971C341.325 89.8178 341.606 90.9189 342.167 91.8962C342.736 92.8777 343.523 93.6447 344.526 94.2056C345.524 94.7664 346.641 95.0468 347.874 95.0468Z" fill="white"/>
<path d="M370.462 97.191C368.227 97.191 366.487 96.5559 365.233 95.2775C363.988 93.9908 363.369 92.1516 363.369 89.7515V80.2007H365.761V89.6526C365.761 93.2485 367.336 95.0465 370.495 95.0465C372.021 95.0465 373.192 94.6094 374.009 93.7269C374.833 92.8362 375.246 91.4794 375.246 89.6526V80.2007H377.572V89.7515C377.572 92.1599 376.945 94.0032 375.691 95.2775C374.446 96.5559 372.705 97.191 370.462 97.191Z" fill="white"/>
<path d="M396.774 96.993L393.162 91.8299C392.708 91.8629 392.357 91.8794 392.106 91.8794H387.949V96.993H385.557V80.2007H392.106C394.271 80.2007 395.974 80.7244 397.22 81.7677C398.473 82.8028 399.1 84.2338 399.1 86.0566C399.1 87.3556 398.778 88.4608 398.143 89.3721C397.504 90.2876 396.593 90.9474 395.405 91.3516L399.397 96.993H396.774ZM392.023 89.8505C393.541 89.8505 394.7 89.5206 395.504 88.8608C396.304 88.201 396.708 87.269 396.708 86.0566C396.708 84.8359 396.304 83.908 395.504 83.2688C394.7 82.6214 393.541 82.2956 392.023 82.2956H387.949V89.8505H392.023Z" fill="white"/>
<path d="M406.062 80.2007H408.454V96.993H406.062V80.2007Z" fill="white"/>
<path d="M421.449 97.1912C420.183 97.1912 418.962 96.9933 417.787 96.5974C416.62 96.2015 415.7 95.6984 415.032 95.0798L415.906 93.1994C416.554 93.7849 417.374 94.2551 418.364 94.618C419.362 94.9726 420.393 95.1458 421.449 95.1458C422.843 95.1458 423.882 94.9108 424.566 94.4365C425.259 93.9664 425.606 93.3396 425.606 92.556C425.606 91.9869 425.412 91.5168 425.028 91.1539C424.653 90.791 424.191 90.5189 423.643 90.3292C423.09 90.1312 422.315 89.9168 421.317 89.6858C420.051 89.3807 419.028 89.0755 418.249 88.7786C417.477 88.4734 416.813 88.0033 416.253 87.3765C415.7 86.7414 415.428 85.8836 415.428 84.8032C415.428 83.9124 415.663 83.1124 416.137 82.3949C416.607 81.6691 417.325 81.0917 418.282 80.6629C419.247 80.234 420.442 80.0195 421.861 80.0195C422.851 80.0195 423.824 80.1474 424.781 80.3989C425.746 80.6546 426.571 81.0216 427.255 81.5041L426.463 83.4176C425.758 82.9681 425.003 82.6258 424.203 82.3949C423.412 82.1639 422.628 82.0485 421.861 82.0485C420.496 82.0485 419.473 82.2959 418.793 82.7908C418.121 83.2856 417.787 83.9289 417.787 84.7207C417.787 85.2939 417.976 85.7599 418.364 86.1228C418.748 86.4775 419.222 86.7579 419.783 86.9641C420.352 87.162 421.127 87.3724 422.109 87.5909C423.362 87.9002 424.373 88.2095 425.144 88.5147C425.911 88.8116 426.571 89.2735 427.123 89.9003C427.672 90.5189 427.948 91.3519 427.948 92.4076C427.948 93.2901 427.705 94.0984 427.222 94.8324C426.748 95.5582 426.022 96.1355 425.045 96.5644C424.076 96.9851 422.876 97.1912 421.449 97.1912Z" fill="white"/>
<path d="M450.084 96.993L450.067 84.7534L443.997 94.9476H442.892L436.822 84.8359V96.993H434.529V80.2007H436.492L443.486 92.0114L450.397 80.2007H452.36L452.393 96.993H450.084Z" fill="white"/>
</g>
</svg>
