<svg xmlns="http://www.w3.org/2000/svg" xmlns:xlink="http://www.w3.org/1999/xlink" width="500" zoomAndPan="magnify" viewBox="0 0 375 374.999991" height="500" preserveAspectRatio="xMidYMid meet" version="1.0"><defs><g/><clipPath id="a34ee2afa6"><path d="M 130.03125 79.492188 L 244.632812 79.492188 L 244.632812 194 L 130.03125 194 Z M 130.03125 79.492188 " clip-rule="nonzero"/></clipPath><clipPath id="bc07b80a83"><path d="M 130.375 136.625 C 130.375 168.171875 155.949219 193.75 187.5 193.75 C 219.046875 193.75 244.625 168.171875 244.625 136.625 C 244.625 105.074219 219.046875 79.496094 187.5 79.496094 C 155.949219 79.496094 130.375 105.074219 130.375 136.625 " clip-rule="nonzero"/></clipPath><clipPath id="e881c5d07a"><path d="M 0.320312 0.492188 L 114.632812 0.492188 L 114.632812 114.921875 L 0.320312 114.921875 Z M 0.320312 0.492188 " clip-rule="nonzero"/></clipPath><clipPath id="f8e7dbb135"><path d="M 0.375 57.625 C 0.375 89.171875 25.949219 114.75 57.5 114.75 C 89.046875 114.75 114.625 89.171875 114.625 57.625 C 114.625 26.074219 89.046875 0.496094 57.5 0.496094 C 25.949219 0.496094 0.375 26.074219 0.375 57.625 " clip-rule="nonzero"/></clipPath><clipPath id="d1e664bf66"><rect x="0" width="115" y="0" height="115"/></clipPath><clipPath id="a13e47f033"><path d="M 99.824219 108.363281 L 208.652344 108.363281 L 208.652344 165 L 99.824219 165 Z M 99.824219 108.363281 " clip-rule="nonzero"/></clipPath><clipPath id="4d7a3761c0"><path d="M 130.75 109.136719 C 127.34375 108.730469 123.921875 108.5625 120.492188 108.5 C 119.085938 108.472656 117.679688 108.550781 116.269531 108.613281 C 113.363281 108.75 110.480469 109.101562 107.632812 109.742188 C 105.269531 110.277344 102.96875 111.003906 100.804688 112.105469 C 100.5625 112.230469 100.3125 112.351562 100.085938 112.507812 C 99.761719 112.722656 99.738281 113.109375 100.035156 113.363281 C 100.238281 113.542969 100.476562 113.695312 100.726562 113.804688 C 101.171875 114 101.628906 114.171875 102.097656 114.316406 C 103.566406 114.753906 105.074219 115.011719 106.59375 115.21875 C 109.65625 115.632812 112.742188 115.839844 115.835938 115.945312 C 117.457031 116.003906 119.074219 116.101562 120.683594 116.3125 C 123.722656 116.699219 126.726562 117.269531 129.683594 118.058594 C 130.210938 118.199219 131.382812 118.570312 131.464844 118.589844 C 131.523438 118.601562 131.582031 118.625 131.636719 118.640625 C 135.074219 119.695312 138.382812 121.027344 141.433594 122.949219 C 143.496094 124.246094 145.367188 125.769531 146.855469 127.710938 C 147.878906 129.046875 148.808594 130.449219 149.398438 132.046875 C 149.695312 132.859375 149.882812 133.6875 149.925781 134.550781 C 150.011719 136.21875 149.554688 137.691406 148.449219 138.957031 C 146.996094 140.613281 145.609375 142.328125 144.273438 144.085938 C 143.253906 145.425781 142.265625 146.785156 141.410156 148.238281 C 141.117188 148.738281 140.863281 149.265625 140.605469 149.785156 C 140.511719 149.976562 140.445312 150.183594 140.382812 150.386719 C 140.316406 150.613281 140.394531 150.816406 140.582031 150.953125 C 140.769531 151.089844 140.992188 151.089844 141.1875 150.976562 C 141.375 150.867188 141.535156 150.726562 141.710938 150.601562 C 142.675781 149.898438 143.683594 149.253906 144.769531 148.757812 C 145.410156 148.460938 146.070312 148.21875 146.769531 148.109375 C 147.851562 147.949219 148.832031 147.554688 149.699219 146.886719 C 149.847656 146.773438 150 146.671875 150.15625 146.574219 C 150.457031 146.386719 150.609375 146.449219 150.65625 146.789062 C 150.699219 147.058594 150.726562 147.335938 150.738281 147.605469 C 150.78125 148.476562 150.992188 149.308594 151.429688 150.058594 C 152.351562 151.632812 152.675781 153.363281 152.800781 155.148438 C 152.828125 155.515625 152.828125 155.882812 152.863281 156.25 C 152.878906 156.425781 152.925781 156.609375 153 156.773438 C 153.125 157.046875 153.46875 157.097656 153.699219 156.914062 C 153.875 156.773438 153.972656 156.582031 154.074219 156.394531 C 154.441406 155.722656 154.726562 155.015625 154.972656 154.289062 C 155.828125 151.828125 156.421875 149.296875 156.96875 146.757812 C 157.214844 145.621094 157.445312 144.480469 157.65625 143.339844 C 157.992188 141.472656 159.027344 140.101562 160.613281 139.117188 C 161.609375 138.5 162.699219 138.066406 163.851562 137.878906 C 165.570312 137.597656 167.304688 137.40625 169.058594 137.554688 C 171.058594 137.71875 172.984375 138.167969 174.867188 138.832031 C 177.917969 139.90625 180.738281 141.433594 183.429688 143.203125 C 187.507812 145.886719 191.230469 149.011719 194.617188 152.523438 C 195.722656 153.667969 196.71875 154.914062 197.792969 156.089844 C 199.917969 158.417969 202.101562 160.691406 204.523438 162.722656 C 205.203125 163.289062 205.921875 163.816406 206.679688 164.28125 C 207.097656 164.539062 207.539062 164.75 208.023438 164.84375 C 208.40625 164.917969 208.695312 164.652344 208.632812 164.261719 C 208.480469 163.265625 208.234375 162.285156 207.933594 161.316406 C 207.105469 158.644531 205.914062 156.136719 204.492188 153.730469 C 202.480469 150.324219 200.117188 147.167969 197.535156 144.171875 C 192.097656 137.871094 186.007812 132.261719 179.449219 127.144531 C 177.917969 125.945312 176.179688 125.378906 174.292969 125.1875 C 172.171875 124.976562 170.074219 125.15625 168.007812 125.65625 C 167.652344 125.742188 167.289062 125.816406 166.921875 125.777344 C 166.632812 125.746094 166.484375 125.582031 166.476562 125.296875 C 166.46875 124.984375 166.5625 124.699219 166.679688 124.410156 C 167.113281 123.363281 167.5 122.296875 167.96875 121.269531 C 168.429688 120.253906 168.417969 119.261719 168.003906 118.25 C 167.714844 117.542969 167.421875 116.847656 167.300781 116.074219 C 167.179688 115.324219 166.667969 114.765625 166.140625 114.246094 C 166.007812 114.113281 165.828125 114.054688 165.640625 114.039062 C 164.777344 113.992188 163.921875 114.011719 163.167969 114.53125 C 162.886719 114.722656 162.5625 114.816406 162.238281 114.910156 C 161.828125 115.027344 161.410156 115.140625 161.015625 115.292969 C 160.242188 115.585938 159.65625 116.085938 159.261719 116.828125 C 158.6875 117.910156 158.082031 118.976562 157.492188 120.042969 C 157.324219 120.34375 157.152344 120.625 156.859375 120.816406 C 156.679688 120.929688 156.515625 120.910156 156.355469 120.785156 C 156.054688 120.546875 155.910156 120.203125 155.753906 119.871094 C 154.992188 118.253906 154.023438 116.773438 152.875 115.40625 C 152.242188 114.65625 151.539062 113.972656 150.757812 113.386719 C 149.789062 112.660156 148.738281 112.136719 147.554688 111.851562 " clip-rule="nonzero"/></clipPath><clipPath id="86f879ec3a"><path d="M 0.824219 0.363281 L 109.652344 0.363281 L 109.652344 57 L 0.824219 57 Z M 0.824219 0.363281 " clip-rule="nonzero"/></clipPath><clipPath id="d1566d809e"><path d="M 31.75 1.136719 C 28.34375 0.730469 24.921875 0.5625 21.492188 0.5 C 20.085938 0.472656 18.679688 0.550781 17.269531 0.613281 C 14.363281 0.75 11.480469 1.101562 8.632812 1.742188 C 6.269531 2.277344 3.96875 3.003906 1.804688 4.105469 C 1.5625 4.230469 1.3125 4.351562 1.085938 4.507812 C 0.761719 4.722656 0.738281 5.109375 1.035156 5.363281 C 1.238281 5.542969 1.476562 5.695312 1.726562 5.804688 C 2.171875 6 2.628906 6.171875 3.097656 6.316406 C 4.566406 6.753906 6.074219 7.011719 7.59375 7.21875 C 10.65625 7.632812 13.742188 7.839844 16.835938 7.945312 C 18.457031 8.003906 20.074219 8.101562 21.683594 8.3125 C 24.722656 8.699219 27.726562 9.269531 30.683594 10.058594 C 31.210938 10.199219 32.382812 10.570312 32.464844 10.589844 C 32.523438 10.601562 32.582031 10.625 32.636719 10.640625 C 36.074219 11.695312 39.382812 13.027344 42.433594 14.949219 C 44.496094 16.246094 46.367188 17.769531 47.855469 19.710938 C 48.878906 21.046875 49.808594 22.449219 50.398438 24.046875 C 50.695312 24.859375 50.882812 25.6875 50.925781 26.550781 C 51.011719 28.21875 50.554688 29.691406 49.449219 30.957031 C 47.996094 32.613281 46.609375 34.328125 45.273438 36.085938 C 44.253906 37.425781 43.265625 38.785156 42.410156 40.238281 C 42.117188 40.738281 41.863281 41.265625 41.605469 41.785156 C 41.511719 41.976562 41.445312 42.183594 41.382812 42.386719 C 41.316406 42.613281 41.394531 42.816406 41.582031 42.953125 C 41.769531 43.089844 41.992188 43.089844 42.1875 42.976562 C 42.375 42.867188 42.535156 42.726562 42.710938 42.601562 C 43.675781 41.898438 44.683594 41.253906 45.769531 40.757812 C 46.410156 40.460938 47.070312 40.21875 47.769531 40.109375 C 48.851562 39.949219 49.832031 39.554688 50.699219 38.886719 C 50.847656 38.773438 51 38.671875 51.15625 38.574219 C 51.457031 38.386719 51.609375 38.449219 51.65625 38.789062 C 51.699219 39.058594 51.726562 39.335938 51.738281 39.605469 C 51.78125 40.476562 51.992188 41.308594 52.429688 42.058594 C 53.351562 43.632812 53.675781 45.363281 53.800781 47.148438 C 53.828125 47.515625 53.828125 47.882812 53.863281 48.25 C 53.878906 48.425781 53.925781 48.609375 54 48.773438 C 54.125 49.046875 54.46875 49.097656 54.699219 48.914062 C 54.875 48.773438 54.972656 48.582031 55.074219 48.394531 C 55.441406 47.722656 55.726562 47.015625 55.972656 46.289062 C 56.828125 43.828125 57.421875 41.296875 57.96875 38.757812 C 58.214844 37.621094 58.445312 36.480469 58.65625 35.339844 C 58.992188 33.472656 60.027344 32.101562 61.613281 31.117188 C 62.609375 30.5 63.699219 30.066406 64.851562 29.878906 C 66.570312 29.597656 68.304688 29.40625 70.058594 29.554688 C 72.058594 29.71875 73.984375 30.167969 75.867188 30.832031 C 78.917969 31.90625 81.738281 33.433594 84.429688 35.203125 C 88.507812 37.886719 92.230469 41.011719 95.617188 44.523438 C 96.722656 45.667969 97.71875 46.914062 98.792969 48.089844 C 100.917969 50.417969 103.101562 52.691406 105.523438 54.722656 C 106.203125 55.289062 106.921875 55.816406 107.679688 56.28125 C 108.097656 56.539062 108.539062 56.75 109.023438 56.84375 C 109.40625 56.917969 109.695312 56.652344 109.632812 56.261719 C 109.480469 55.265625 109.234375 54.285156 108.933594 53.316406 C 108.105469 50.644531 106.914062 48.136719 105.492188 45.730469 C 103.480469 42.324219 101.117188 39.167969 98.535156 36.171875 C 93.097656 29.871094 87.007812 24.261719 80.449219 19.144531 C 78.917969 17.945312 77.179688 17.378906 75.292969 17.1875 C 73.171875 16.976562 71.074219 17.15625 69.007812 17.65625 C 68.652344 17.742188 68.289062 17.816406 67.921875 17.777344 C 67.632812 17.746094 67.484375 17.582031 67.476562 17.296875 C 67.46875 16.984375 67.5625 16.699219 67.679688 16.410156 C 68.113281 15.363281 68.5 14.296875 68.96875 13.269531 C 69.429688 12.253906 69.417969 11.261719 69.003906 10.25 C 68.714844 9.542969 68.421875 8.847656 68.300781 8.074219 C 68.179688 7.324219 67.667969 6.765625 67.140625 6.246094 C 67.007812 6.113281 66.828125 6.054688 66.640625 6.039062 C 65.777344 5.992188 64.921875 6.011719 64.167969 6.53125 C 63.886719 6.722656 63.5625 6.816406 63.238281 6.910156 C 62.828125 7.027344 62.410156 7.140625 62.015625 7.292969 C 61.242188 7.585938 60.65625 8.085938 60.261719 8.828125 C 59.6875 9.910156 59.082031 10.976562 58.492188 12.042969 C 58.324219 12.34375 58.152344 12.625 57.859375 12.816406 C 57.679688 12.929688 57.515625 12.910156 57.355469 12.785156 C 57.054688 12.546875 56.910156 12.203125 56.753906 11.871094 C 55.992188 10.253906 55.023438 8.773438 53.875 7.40625 C 53.242188 6.65625 52.539062 5.972656 51.757812 5.386719 C 50.789062 4.660156 49.738281 4.136719 48.554688 3.851562 " clip-rule="nonzero"/></clipPath><clipPath id="9b6232125f"><rect x="0" width="110" y="0" height="57"/></clipPath><clipPath id="342ccca973"><path d="M 0.480469 15 L 35 15 L 35 54 L 0.480469 54 Z M 0.480469 15 " clip-rule="nonzero"/></clipPath><clipPath id="a30c4c23c5"><rect x="0" width="302" y="0" height="98"/></clipPath></defs><g clip-path="url(#a34ee2afa6)"><g clip-path="url(#bc07b80a83)"><g transform="matrix(1, 0, 0, 1, 130, 79)"><g clip-path="url(#d1e664bf66)"><g clip-path="url(#e881c5d07a)"><g clip-path="url(#f8e7dbb135)"><rect x="-212.5" width="540" fill="#e5362c" height="539.999987" y="-161.499998" fill-opacity="1"/></g></g></g></g></g></g><g clip-path="url(#a13e47f033)"><g clip-path="url(#4d7a3761c0)"><g transform="matrix(1, 0, 0, 1, 99, 108)"><g clip-path="url(#9b6232125f)"><g clip-path="url(#86f879ec3a)"><g clip-path="url(#d1566d809e)"><rect x="-181.5" width="540" fill="#fdfdfd" height="539.999987" y="-190.499998" fill-opacity="1"/></g></g></g></g></g></g><g transform="matrix(1, 0, 0, 1, 42, 201)"><g clip-path="url(#a30c4c23c5)"><g clip-path="url(#342ccca973)"><g fill="#ffffff" fill-opacity="1"><g transform="translate(0.633875, 53.953609)"><g><path d="M 12.65625 -31.546875 L 0.21875 -31.546875 L 0.21875 -38.875 L 34.09375 -38.875 L 34.09375 -31.546875 L 21.65625 -31.546875 L 21.65625 0 L 12.65625 0 Z M 12.65625 -31.546875 "/></g></g></g></g><g fill="#ffffff" fill-opacity="1"><g transform="translate(40.2263, 53.953609)"><g><path d="M 34.703125 -7.21875 L 34.703125 0 L 4.609375 0 L 4.609375 -38.875 L 33.984375 -38.875 L 33.984375 -31.65625 L 13.546875 -31.65625 L 13.546875 -23.21875 L 31.59375 -23.21875 L 31.59375 -16.21875 L 13.546875 -16.21875 L 13.546875 -7.21875 Z M 34.703125 -7.21875 "/></g></g></g><g fill="#ffffff" fill-opacity="1"><g transform="translate(82.761746, 53.953609)"><g><path d="M 4.609375 -38.875 L 13.609375 -38.875 L 13.609375 -7.328125 L 33.09375 -7.328125 L 33.09375 0 L 4.609375 0 Z M 4.609375 -38.875 "/></g></g></g><g fill="#ffffff" fill-opacity="1"><g transform="translate(121.576771, 53.953609)"><g><path d="M 17.375 0.671875 C 14.300781 0.671875 11.332031 0.253906 8.46875 -0.578125 C 5.601562 -1.410156 3.300781 -2.492188 1.5625 -3.828125 L 4.609375 -10.609375 C 6.273438 -9.390625 8.253906 -8.40625 10.546875 -7.65625 C 12.847656 -6.914062 15.144531 -6.546875 17.4375 -6.546875 C 19.988281 -6.546875 21.875 -6.925781 23.09375 -7.6875 C 24.320312 -8.445312 24.9375 -9.457031 24.9375 -10.71875 C 24.9375 -11.644531 24.570312 -12.410156 23.84375 -13.015625 C 23.125 -13.628906 22.195312 -14.117188 21.0625 -14.484375 C 19.9375 -14.859375 18.414062 -15.269531 16.5 -15.71875 C 13.53125 -16.414062 11.101562 -17.113281 9.21875 -17.8125 C 7.332031 -18.519531 5.710938 -19.648438 4.359375 -21.203125 C 3.003906 -22.765625 2.328125 -24.84375 2.328125 -27.4375 C 2.328125 -29.6875 2.9375 -31.726562 4.15625 -33.5625 C 5.382812 -35.394531 7.226562 -36.847656 9.6875 -37.921875 C 12.15625 -38.992188 15.164062 -39.53125 18.71875 -39.53125 C 21.195312 -39.53125 23.617188 -39.234375 25.984375 -38.640625 C 28.359375 -38.054688 30.429688 -37.207031 32.203125 -36.09375 L 29.4375 -29.265625 C 25.84375 -31.296875 22.25 -32.3125 18.65625 -32.3125 C 16.132812 -32.3125 14.269531 -31.90625 13.0625 -31.09375 C 11.863281 -30.28125 11.265625 -29.207031 11.265625 -27.875 C 11.265625 -26.539062 11.957031 -25.550781 13.34375 -24.90625 C 14.738281 -24.257812 16.863281 -23.617188 19.71875 -22.984375 C 22.675781 -22.285156 25.097656 -21.582031 26.984375 -20.875 C 28.867188 -20.175781 30.488281 -19.066406 31.84375 -17.546875 C 33.195312 -16.023438 33.875 -13.972656 33.875 -11.390625 C 33.875 -9.160156 33.253906 -7.128906 32.015625 -5.296875 C 30.773438 -3.460938 28.914062 -2.007812 26.4375 -0.9375 C 23.957031 0.132812 20.9375 0.671875 17.375 0.671875 Z M 17.375 0.671875 "/></g></g></g><g fill="#ffffff" fill-opacity="1"><g transform="translate(162.279768, 53.953609)"><g><path d="M 18.765625 -15.265625 L 13.546875 -9.828125 L 13.546875 0 L 4.609375 0 L 4.609375 -38.875 L 13.546875 -38.875 L 13.546875 -20.71875 L 30.765625 -38.875 L 40.765625 -38.875 L 24.65625 -21.546875 L 41.703125 0 L 31.203125 0 Z M 18.765625 -15.265625 "/></g></g></g><g fill="#ffffff" fill-opacity="1"><g transform="translate(208.64669, 53.953609)"><g><path d="M 23.4375 0.671875 C 19.394531 0.671875 15.753906 -0.195312 12.515625 -1.9375 C 9.273438 -3.675781 6.738281 -6.070312 4.90625 -9.125 C 3.082031 -12.1875 2.171875 -15.625 2.171875 -19.4375 C 2.171875 -23.25 3.082031 -26.679688 4.90625 -29.734375 C 6.738281 -32.785156 9.273438 -35.179688 12.515625 -36.921875 C 15.753906 -38.660156 19.394531 -39.53125 23.4375 -39.53125 C 27.46875 -39.53125 31.09375 -38.660156 34.3125 -36.921875 C 37.539062 -35.179688 40.078125 -32.785156 41.921875 -29.734375 C 43.773438 -26.679688 44.703125 -23.25 44.703125 -19.4375 C 44.703125 -15.625 43.773438 -12.1875 41.921875 -9.125 C 40.078125 -6.070312 37.539062 -3.675781 34.3125 -1.9375 C 31.09375 -0.195312 27.46875 0.671875 23.4375 0.671875 Z M 23.4375 -7 C 25.726562 -7 27.800781 -7.523438 29.65625 -8.578125 C 31.507812 -9.628906 32.960938 -11.097656 34.015625 -12.984375 C 35.066406 -14.878906 35.59375 -17.03125 35.59375 -19.4375 C 35.59375 -21.84375 35.066406 -23.988281 34.015625 -25.875 C 32.960938 -27.757812 31.507812 -29.226562 29.65625 -30.28125 C 27.800781 -31.34375 25.726562 -31.875 23.4375 -31.875 C 21.132812 -31.875 19.054688 -31.34375 17.203125 -30.28125 C 15.359375 -29.226562 13.90625 -27.757812 12.84375 -25.875 C 11.789062 -23.988281 11.265625 -21.84375 11.265625 -19.4375 C 11.265625 -17.03125 11.789062 -14.878906 12.84375 -12.984375 C 13.90625 -11.097656 15.359375 -9.628906 17.203125 -8.578125 C 19.054688 -7.523438 21.132812 -7 23.4375 -7 Z M 23.4375 -7 "/></g></g></g><g fill="#ffffff" fill-opacity="1"><g transform="translate(260.788602, 53.953609)"><g><path d="M 13.609375 -31.65625 L 13.609375 -21.375 L 31.59375 -21.375 L 31.59375 -14.15625 L 13.609375 -14.15625 L 13.609375 0 L 4.609375 0 L 4.609375 -38.875 L 33.984375 -38.875 L 33.984375 -31.65625 Z M 13.609375 -31.65625 "/></g></g></g><g fill="#ffffff" fill-opacity="1"><g transform="translate(13.370288, 91.035361)"><g><path d="M 5.546875 -13.921875 L 0.09375 -13.921875 L 0.09375 -15.90625 L 13.25 -15.90625 L 13.25 -13.921875 L 7.796875 -13.921875 L 7.796875 0 L 5.546875 0 Z M 5.546875 -13.921875 "/></g></g></g><g fill="#ffffff" fill-opacity="1"><g transform="translate(29.612777, 91.035361)"><g><path d="M 13.015625 0 L 9.59375 -4.890625 C 9.164062 -4.859375 8.832031 -4.84375 8.59375 -4.84375 L 4.65625 -4.84375 L 4.65625 0 L 2.390625 0 L 2.390625 -15.90625 L 8.59375 -15.90625 C 10.644531 -15.90625 12.257812 -15.410156 13.4375 -14.421875 C 14.625 -13.441406 15.21875 -12.085938 15.21875 -10.359375 C 15.21875 -9.128906 14.914062 -8.082031 14.3125 -7.21875 C 13.707031 -6.351562 12.84375 -5.726562 11.71875 -5.34375 L 15.5 0 Z M 8.515625 -6.765625 C 9.953125 -6.765625 11.050781 -7.078125 11.8125 -7.703125 C 12.570312 -8.328125 12.953125 -9.210938 12.953125 -10.359375 C 12.953125 -11.515625 12.570312 -12.394531 11.8125 -13 C 11.050781 -13.613281 9.953125 -13.921875 8.515625 -13.921875 L 4.65625 -13.921875 L 4.65625 -6.765625 Z M 8.515625 -6.765625 "/></g></g></g><g fill="#ffffff" fill-opacity="1"><g transform="translate(49.035613, 91.035361)"><g><path d="M 12.515625 -3.96875 L 4.0625 -3.96875 L 2.3125 0 L -0.015625 0 L 7.171875 -15.90625 L 9.421875 -15.90625 L 16.65625 0 L 14.265625 0 Z M 11.71875 -5.796875 L 8.296875 -13.578125 L 4.859375 -5.796875 Z M 11.71875 -5.796875 "/></g></g></g><g fill="#ffffff" fill-opacity="1"><g transform="translate(68.572036, 91.035361)"><g><path d="M 16.203125 -15.90625 L 9.21875 0 L 6.96875 0 L -0.015625 -15.90625 L 2.4375 -15.90625 L 8.15625 -2.84375 L 13.921875 -15.90625 Z M 16.203125 -15.90625 "/></g></g></g><g fill="#ffffff" fill-opacity="1"><g transform="translate(87.654124, 91.035361)"><g><path d="M 13.921875 -1.96875 L 13.921875 0 L 2.390625 0 L 2.390625 -15.90625 L 13.609375 -15.90625 L 13.609375 -13.921875 L 4.65625 -13.921875 L 4.65625 -9.046875 L 12.625 -9.046875 L 12.625 -7.109375 L 4.65625 -7.109375 L 4.65625 -1.96875 Z M 13.921875 -1.96875 "/></g></g></g><g fill="#ffffff" fill-opacity="1"><g transform="translate(105.782113, 91.035361)"><g><path d="M 2.390625 -15.90625 L 4.65625 -15.90625 L 4.65625 -1.96875 L 13.265625 -1.96875 L 13.265625 0 L 2.390625 0 Z M 2.390625 -15.90625 "/></g></g></g><g fill="#ffffff" fill-opacity="1"><g transform="translate(122.183609, 91.035361)"><g/></g></g><g fill="#ffffff" fill-opacity="1"><g transform="translate(131.202169, 91.035361)"><g><path d="M 14.015625 0.25 L 11.90625 -1.859375 C 10.5 -0.492188 8.726562 0.1875 6.59375 0.1875 C 5.53125 0.1875 4.570312 0.015625 3.71875 -0.328125 C 2.875 -0.679688 2.210938 -1.171875 1.734375 -1.796875 C 1.253906 -2.429688 1.015625 -3.148438 1.015625 -3.953125 C 1.015625 -4.921875 1.3125 -5.78125 1.90625 -6.53125 C 2.507812 -7.28125 3.503906 -8.050781 4.890625 -8.84375 C 4.191406 -9.53125 3.695312 -10.15625 3.40625 -10.71875 C 3.113281 -11.28125 2.96875 -11.863281 2.96875 -12.46875 C 2.96875 -13.539062 3.359375 -14.40625 4.140625 -15.0625 C 4.921875 -15.71875 5.960938 -16.046875 7.265625 -16.046875 C 8.484375 -16.046875 9.445312 -15.75 10.15625 -15.15625 C 10.863281 -14.5625 11.21875 -13.75 11.21875 -12.71875 C 11.21875 -11.914062 10.957031 -11.195312 10.4375 -10.5625 C 9.914062 -9.925781 9.050781 -9.257812 7.84375 -8.5625 L 11.765625 -4.65625 C 12.222656 -5.519531 12.550781 -6.484375 12.75 -7.546875 L 14.5 -6.96875 C 14.21875 -5.582031 13.753906 -4.375 13.109375 -3.34375 L 15.25 -1.203125 Z M 7.265625 -14.453125 C 6.554688 -14.453125 6 -14.269531 5.59375 -13.90625 C 5.195312 -13.550781 5 -13.085938 5 -12.515625 C 5 -12.109375 5.109375 -11.710938 5.328125 -11.328125 C 5.546875 -10.953125 5.972656 -10.441406 6.609375 -9.796875 C 7.648438 -10.378906 8.367188 -10.882812 8.765625 -11.3125 C 9.171875 -11.738281 9.375 -12.203125 9.375 -12.703125 C 9.375 -13.234375 9.1875 -13.65625 8.8125 -13.96875 C 8.445312 -14.289062 7.929688 -14.453125 7.265625 -14.453125 Z M 6.71875 -1.640625 C 8.300781 -1.640625 9.597656 -2.140625 10.609375 -3.140625 L 6.09375 -7.640625 C 5 -7.023438 4.234375 -6.457031 3.796875 -5.9375 C 3.367188 -5.414062 3.15625 -4.832031 3.15625 -4.1875 C 3.15625 -3.425781 3.484375 -2.8125 4.140625 -2.34375 C 4.804688 -1.875 5.664062 -1.640625 6.71875 -1.640625 Z M 6.71875 -1.640625 "/></g></g></g><g fill="#ffffff" fill-opacity="1"><g transform="translate(149.69362, 91.035361)"><g/></g></g><g fill="#ffffff" fill-opacity="1"><g transform="translate(158.712181, 91.035361)"><g><path d="M 5.546875 -13.921875 L 0.09375 -13.921875 L 0.09375 -15.90625 L 13.25 -15.90625 L 13.25 -13.921875 L 7.796875 -13.921875 L 7.796875 0 L 5.546875 0 Z M 5.546875 -13.921875 "/></g></g></g><g fill="#ffffff" fill-opacity="1"><g transform="translate(174.954665, 91.035361)"><g><path d="M 9.5625 0.1875 C 7.957031 0.1875 6.507812 -0.164062 5.21875 -0.875 C 3.9375 -1.582031 2.925781 -2.554688 2.1875 -3.796875 C 1.457031 -5.035156 1.09375 -6.421875 1.09375 -7.953125 C 1.09375 -9.484375 1.457031 -10.867188 2.1875 -12.109375 C 2.925781 -13.347656 3.9375 -14.316406 5.21875 -15.015625 C 6.507812 -15.722656 7.957031 -16.078125 9.5625 -16.078125 C 11.15625 -16.078125 12.59375 -15.722656 13.875 -15.015625 C 15.164062 -14.316406 16.175781 -13.347656 16.90625 -12.109375 C 17.632812 -10.878906 18 -9.492188 18 -7.953125 C 18 -6.410156 17.632812 -5.019531 16.90625 -3.78125 C 16.175781 -2.550781 15.164062 -1.582031 13.875 -0.875 C 12.59375 -0.164062 11.15625 0.1875 9.5625 0.1875 Z M 9.5625 -1.84375 C 10.726562 -1.84375 11.773438 -2.109375 12.703125 -2.640625 C 13.640625 -3.171875 14.375 -3.898438 14.90625 -4.828125 C 15.445312 -5.753906 15.71875 -6.796875 15.71875 -7.953125 C 15.71875 -9.097656 15.445312 -10.132812 14.90625 -11.0625 C 14.375 -12 13.640625 -12.734375 12.703125 -13.265625 C 11.773438 -13.796875 10.726562 -14.0625 9.5625 -14.0625 C 8.394531 -14.0625 7.335938 -13.796875 6.390625 -13.265625 C 5.441406 -12.734375 4.695312 -12 4.15625 -11.0625 C 3.625 -10.132812 3.359375 -9.097656 3.359375 -7.953125 C 3.359375 -6.796875 3.625 -5.753906 4.15625 -4.828125 C 4.695312 -3.898438 5.441406 -3.171875 6.390625 -2.640625 C 7.335938 -2.109375 8.394531 -1.84375 9.5625 -1.84375 Z M 9.5625 -1.84375 "/></g></g></g><g fill="#ffffff" fill-opacity="1"><g transform="translate(196.9445, 91.035361)"><g><path d="M 8.96875 0.1875 C 6.851562 0.1875 5.203125 -0.414062 4.015625 -1.625 C 2.835938 -2.84375 2.25 -4.585938 2.25 -6.859375 L 2.25 -15.90625 L 4.515625 -15.90625 L 4.515625 -6.953125 C 4.515625 -3.546875 6.007812 -1.84375 9 -1.84375 C 10.445312 -1.84375 11.554688 -2.257812 12.328125 -3.09375 C 13.109375 -3.9375 13.5 -5.222656 13.5 -6.953125 L 13.5 -15.90625 L 15.703125 -15.90625 L 15.703125 -6.859375 C 15.703125 -4.578125 15.109375 -2.832031 13.921875 -1.625 C 12.742188 -0.414062 11.09375 0.1875 8.96875 0.1875 Z M 8.96875 0.1875 "/></g></g></g><g fill="#ffffff" fill-opacity="1"><g transform="translate(217.821214, 91.035361)"><g><path d="M 13.015625 0 L 9.59375 -4.890625 C 9.164062 -4.859375 8.832031 -4.84375 8.59375 -4.84375 L 4.65625 -4.84375 L 4.65625 0 L 2.390625 0 L 2.390625 -15.90625 L 8.59375 -15.90625 C 10.644531 -15.90625 12.257812 -15.410156 13.4375 -14.421875 C 14.625 -13.441406 15.21875 -12.085938 15.21875 -10.359375 C 15.21875 -9.128906 14.914062 -8.082031 14.3125 -7.21875 C 13.707031 -6.351562 12.84375 -5.726562 11.71875 -5.34375 L 15.5 0 Z M 8.515625 -6.765625 C 9.953125 -6.765625 11.050781 -7.078125 11.8125 -7.703125 C 12.570312 -8.328125 12.953125 -9.210938 12.953125 -10.359375 C 12.953125 -11.515625 12.570312 -12.394531 11.8125 -13 C 11.050781 -13.613281 9.953125 -13.921875 8.515625 -13.921875 L 4.65625 -13.921875 L 4.65625 -6.765625 Z M 8.515625 -6.765625 "/></g></g></g><g fill="#ffffff" fill-opacity="1"><g transform="translate(237.24404, 91.035361)"><g><path d="M 2.390625 -15.90625 L 4.65625 -15.90625 L 4.65625 0 L 2.390625 0 Z M 2.390625 -15.90625 "/></g></g></g><g fill="#ffffff" fill-opacity="1"><g transform="translate(247.193975, 91.035361)"><g><path d="M 7.015625 0.1875 C 5.816406 0.1875 4.660156 0 3.546875 -0.375 C 2.441406 -0.75 1.570312 -1.226562 0.9375 -1.8125 L 1.765625 -3.59375 C 2.378906 -3.039062 3.15625 -2.59375 4.09375 -2.25 C 5.039062 -1.914062 6.015625 -1.75 7.015625 -1.75 C 8.335938 -1.75 9.320312 -1.972656 9.96875 -2.421875 C 10.625 -2.867188 10.953125 -3.460938 10.953125 -4.203125 C 10.953125 -4.742188 10.769531 -5.1875 10.40625 -5.53125 C 10.050781 -5.875 9.613281 -6.132812 9.09375 -6.3125 C 8.570312 -6.5 7.835938 -6.703125 6.890625 -6.921875 C 5.691406 -7.210938 4.722656 -7.5 3.984375 -7.78125 C 3.253906 -8.070312 2.625 -8.515625 2.09375 -9.109375 C 1.570312 -9.710938 1.3125 -10.523438 1.3125 -11.546875 C 1.3125 -12.390625 1.535156 -13.148438 1.984375 -13.828125 C 2.429688 -14.515625 3.109375 -15.0625 4.015625 -15.46875 C 4.929688 -15.875 6.0625 -16.078125 7.40625 -16.078125 C 8.34375 -16.078125 9.265625 -15.957031 10.171875 -15.71875 C 11.085938 -15.476562 11.867188 -15.128906 12.515625 -14.671875 L 11.765625 -12.859375 C 11.097656 -13.285156 10.382812 -13.609375 9.625 -13.828125 C 8.875 -14.046875 8.132812 -14.15625 7.40625 -14.15625 C 6.113281 -14.15625 5.144531 -13.921875 4.5 -13.453125 C 3.863281 -12.984375 3.546875 -12.375 3.546875 -11.625 C 3.546875 -11.082031 3.726562 -10.640625 4.09375 -10.296875 C 4.457031 -9.960938 4.90625 -9.695312 5.4375 -9.5 C 5.976562 -9.3125 6.710938 -9.113281 7.640625 -8.90625 C 8.828125 -8.613281 9.785156 -8.320312 10.515625 -8.03125 C 11.242188 -7.75 11.867188 -7.3125 12.390625 -6.71875 C 12.910156 -6.132812 13.171875 -5.34375 13.171875 -4.34375 C 13.171875 -3.507812 12.941406 -2.742188 12.484375 -2.046875 C 12.035156 -1.359375 11.347656 -0.8125 10.421875 -0.40625 C 9.503906 -0.0078125 8.367188 0.1875 7.015625 0.1875 Z M 7.015625 0.1875 "/></g></g></g><g fill="#ffffff" fill-opacity="1"><g transform="translate(264.208843, 91.035361)"><g><path d="M 17.125 0 L 17.109375 -11.59375 L 11.359375 -1.9375 L 10.3125 -1.9375 L 4.5625 -11.515625 L 4.5625 0 L 2.390625 0 L 2.390625 -15.90625 L 4.25 -15.90625 L 10.875 -4.71875 L 17.421875 -15.90625 L 19.28125 -15.90625 L 19.3125 0 Z M 17.125 0 "/></g></g></g></g></g></svg>