<svg width="259" height="43" viewBox="0 0 259 43" fill="none" xmlns="http://www.w3.org/2000/svg">
<g clip-path="url(#clip0_186_716)">
<path d="M101.59 3.9435C101.59 1.76335 103.351 0 105.519 0C107.694 0 109.462 1.76335 109.462 3.9435C109.462 6.12082 107.694 7.88604 105.519 7.88604C103.351 7.88604 101.59 6.12082 101.59 3.9435Z" fill="white"/>
<path d="M163.699 30.1733C163.699 27.9923 165.459 26.2271 167.627 26.2271C169.802 26.2271 171.569 27.9923 171.569 30.1733C171.569 32.3488 169.802 34.1159 167.627 34.1159C165.459 34.1159 163.699 32.3488 163.699 30.1733Z" fill="white"/>
<path d="M36.9852 28.4688C33.595 28.4688 31.2391 25.7784 31.2391 21.934C31.2391 18.0905 33.595 15.402 36.9852 15.402C40.3949 15.402 42.7768 18.0905 42.7768 21.934C42.7768 25.8392 40.4445 28.4688 36.9852 28.4688ZM36.9852 9.65869C29.8128 9.65869 24.6075 14.8226 24.6075 21.934C24.6075 29.0454 29.8128 34.2083 36.9852 34.2083C44.1845 34.2083 49.4114 29.0454 49.4114 21.934C49.4114 14.8226 44.1845 9.65869 36.9852 9.65869Z" fill="white"/>
<path d="M93.9663 22.5481C93.6875 22.0239 93.3679 21.58 93.0274 21.2277L92.8106 20.9978L93.0387 20.7792C93.3679 20.4325 93.7045 20.0213 94.0291 19.5447L100.359 10.1429H92.6749L87.9192 17.4973C87.65 17.8916 87.1064 18.0907 86.2928 18.0907H85.2089V4.18657C85.2089 1.40556 83.475 1.0271 81.6018 1.0271H78.395L78.4005 33.8469H85.2089V24.0022H85.8468C86.6229 24.0022 87.1514 24.0919 87.3937 24.5133L91.1496 31.5967C92.1987 33.5189 93.2443 33.8469 95.2112 33.8469H100.429L96.5429 27.4242L93.9663 22.5481Z" fill="white"/>
<path d="M127.019 9.60645C123.556 9.60645 121.346 11.1436 120.108 12.4435L119.694 12.8612L119.548 12.2931C119.185 10.9007 117.958 10.1344 116.113 10.1344H113.062L113.081 33.8384H119.843V22.9134C119.843 21.8453 119.982 20.9183 120.265 20.0726C121.017 17.5131 123.117 15.9216 125.741 15.9216C127.852 15.9216 128.677 17.0346 128.677 19.9109V30.235C128.677 32.6899 129.813 33.8384 132.272 33.8384H135.49L135.479 18.7625C135.479 12.7725 132.555 9.60645 127.021 9.60645" fill="white"/>
<path d="M105.609 10.1448H102.404L102.426 28.4727H102.424V33.8441H105.845C105.888 33.8441 105.922 33.8487 105.965 33.8487L107.559 33.8441H109.145V33.8347H109.156L109.17 13.7435C109.17 11.3194 108.01 10.1448 105.611 10.1448" fill="white"/>
<path d="M63.5463 28.4688C60.1564 28.4688 57.7958 25.7784 57.7958 21.934C57.7958 18.0905 60.1564 15.402 63.5463 15.402C66.9488 15.402 69.3373 18.0905 69.3373 21.934C69.3373 25.8392 67.0058 28.4688 63.5463 28.4688ZM63.5463 9.65869C56.3667 9.65869 51.1604 14.8226 51.1604 21.934C51.1604 29.0454 56.3667 34.2083 63.5463 34.2083C70.7382 34.2083 75.9736 29.0454 75.9736 21.934C75.9736 14.8226 70.7382 9.65869 63.5463 9.65869Z" fill="white"/>
<path d="M208.493 28.4688C205.104 28.4688 202.742 25.7784 202.742 21.934C202.742 18.0905 205.104 15.402 208.493 15.402C211.896 15.402 214.286 18.0905 214.286 21.934C214.286 25.8392 211.953 28.4688 208.493 28.4688ZM208.493 9.65869C201.315 9.65869 196.109 14.8226 196.109 21.934C196.109 29.0454 201.315 34.2083 208.493 34.2083C215.686 34.2083 220.92 29.0454 220.92 21.934C220.92 14.8226 215.686 9.65869 208.493 9.65869Z" fill="white"/>
<path d="M149.737 27.426C146.04 27.426 144.724 24.203 144.724 21.1828C144.724 19.8521 145.061 15.5152 149.382 15.5152C151.529 15.5152 154.391 16.1301 154.391 21.4061C154.391 26.3822 151.859 27.426 149.737 27.426ZM157.902 10.0812C156.619 10.0812 155.631 10.5923 155.136 11.5259L154.949 11.8884L154.636 11.6165C153.544 10.6727 151.587 9.55322 148.409 9.55322C142.086 9.55322 137.829 14.2985 137.829 21.3603C137.829 28.4138 142.234 33.3431 148.537 33.3431C150.689 33.3431 152.391 32.8413 153.739 31.8209L154.261 31.4293V32.0881C154.261 35.2542 152.212 37.0007 148.497 37.0007C146.692 37.0007 145.049 36.5615 143.95 36.1634C142.516 35.7307 141.675 36.0886 141.093 37.5268L140.556 38.8538L139.797 40.7919L140.267 41.0423C142.645 42.3029 145.739 43.0552 148.537 43.0552C154.296 43.0552 161.02 40.1097 161.02 31.8209L161.044 10.0812H157.903" fill="white"/>
<path d="M11.8014 28.1968L6.29684 28.1914V21.6155C6.29684 20.21 6.84209 19.4792 8.04746 19.311H11.8014C14.4808 19.311 16.212 20.9996 16.2139 23.7311C16.212 26.5345 14.5239 28.195 11.8014 28.1968ZM6.29684 10.4576V8.72698C6.29684 7.2122 6.93831 6.49172 8.34599 6.39919H11.1627C13.5784 6.39919 15.0252 7.84391 15.0252 10.2605C15.0252 12.1033 14.0348 14.2535 11.2515 14.2535H6.29684V10.4576ZM18.8316 17.0205L17.8365 16.4617L18.7052 15.7197C19.7154 14.8516 21.409 12.9004 21.409 9.52877C21.409 4.37043 17.4044 1.04089 11.2066 1.04089H4.13366V1.03882H3.32825C1.49074 1.10612 0.0205599 2.59939 0 4.44686V33.7269H3.24601C3.25424 33.729 3.25698 33.7269 3.25972 33.729L11.3464 33.7269C18.2362 33.7269 22.6832 29.9796 22.6832 24.1756C22.6832 21.0507 21.2459 18.379 18.8302 17.0203" fill="white"/>
<path d="M251.127 9.68311C248.321 9.68311 245.609 10.996 243.868 13.1977L243.377 13.8182L242.993 13.1238C241.741 10.8418 239.585 9.68311 236.588 9.68311C233.445 9.68311 231.336 11.4352 230.357 12.4772L229.717 13.1706L229.47 12.2585C229.112 10.9456 227.943 10.2223 226.17 10.2223H223.328L223.301 33.8347H229.759V23.4115C229.759 22.4985 229.872 21.5949 230.101 20.6501C230.718 18.1317 232.412 15.4227 235.26 15.6937C237.016 15.8619 237.873 17.2178 237.873 19.8371V33.8347H244.377V23.4115C244.377 22.2705 244.484 21.4164 244.741 20.5595C245.265 18.1551 247.033 15.6899 249.781 15.6899C251.769 15.6899 252.504 16.815 252.504 19.8371V30.3827C252.504 32.7684 253.569 33.8347 255.955 33.8347H258.995L259 18.7606C259 12.7388 256.347 9.68311 251.126 9.68311" fill="white"/>
<path d="M192.369 25.6364C192.35 25.6597 189.571 28.5874 185.913 28.5874C182.58 28.5874 179.212 26.5437 179.212 21.9816C179.212 18.0428 181.823 15.2898 185.56 15.2898C186.774 15.2898 188.154 15.7244 188.37 16.4551L188.402 16.5785C188.9 18.2353 190.407 18.3241 190.703 18.3241L194.241 18.3277V15.2374C194.241 11.1612 189.052 9.68286 185.56 9.68286C178.093 9.68286 172.675 14.8776 172.675 22.031C172.675 29.1817 178.034 34.369 185.424 34.369C191.835 34.369 195.321 30.1582 195.354 30.1161L195.54 29.8881L192.738 25.2438L192.369 25.6364Z" fill="white"/>
</g>
<defs>
<clipPath id="clip0_186_716">
<rect width="259" height="43" fill="white"/>
</clipPath>
</defs>
</svg>
