<svg width="252" height="33" viewBox="0 0 252 33" fill="none" xmlns="http://www.w3.org/2000/svg">
<g clip-path="url(#clip0_184_537)">
<path d="M17.3793 23.4808C17.3793 22.3702 17.8533 22.2115 18.9592 22.8462C20.8552 23.9567 22.7511 24.9087 22.7511 24.9087C22.7511 24.274 23.3831 23.7981 24.489 24.1154C25.595 24.4327 26.7009 24.5913 26.7009 24.5913C26.7009 24.5913 26.069 23.1635 25.753 22.5288C25.279 21.4183 25.753 20.7837 26.227 20.625C26.227 20.625 25.595 20.149 25.121 19.8317C24.173 19.1971 24.331 18.4038 25.279 18.0865C26.5429 17.4519 28.2809 16.8173 28.2809 16.8173C27.8069 16.5 27.1749 15.7067 27.8069 14.5962C28.4389 13.6442 29.5448 12.2163 29.5448 12.2163C29.5448 12.2163 27.8069 12.2163 26.5429 12.2163C25.437 12.2163 25.121 11.2644 25.121 10.6298C25.121 10.6298 23.3831 11.899 22.1191 12.6923C21.0132 13.4856 20.0652 12.6923 20.2232 11.4231C20.5392 9.51923 20.6972 7.29808 20.6972 7.29808C20.0652 7.93269 18.9592 7.77404 18.3273 6.82212C17.5373 5.23558 16.7473 3.33173 16.7473 3.33173C16.7473 3.33173 15.9574 5.23558 15.1674 6.82212C14.6934 7.77404 13.5875 7.93269 12.9555 7.45673C12.9555 7.45673 13.1135 9.67789 13.4295 11.5817C13.5875 12.6923 12.6395 13.4856 11.5335 12.6923C10.2696 11.899 8.37367 10.6298 8.37367 10.6298C8.37367 11.2644 8.05768 12.0577 6.95172 12.2163C5.68777 12.2163 3.94984 12.2163 3.94984 12.2163C3.94984 12.2163 5.0558 13.6442 5.68777 14.5962C6.31975 15.5481 5.68777 16.5 5.21379 16.8173C5.21379 16.8173 6.79373 17.6106 8.21567 18.0865C9.16364 18.5625 9.47962 19.1971 8.37367 19.8317C8.05768 20.149 7.26771 20.625 7.26771 20.625C7.89969 20.7837 8.37367 21.4183 7.89969 22.5288C7.5837 23.1635 6.95172 24.5913 6.95172 24.5913C6.95172 24.5913 8.05768 24.274 9.16364 24.1154C10.2696 23.7981 10.7436 24.4327 10.9016 24.9087C10.9016 24.9087 12.7975 23.7981 14.6934 22.8462C15.6414 22.2115 16.2734 22.5288 16.2734 23.4808V26.1779C16.2734 27.7644 15.9574 29.351 15.4834 30.3029C8.37367 29.5096 2.36991 23.7981 2.36991 16.1827C2.36991 8.40865 8.84765 2.0625 16.9053 2.0625C24.963 2.0625 31.4408 8.40865 31.4408 16.1827C31.4408 23.4808 25.753 29.5096 18.4853 30.3029V32.2067C27.0169 31.4135 33.6527 24.5913 33.6527 16.1827C33.6527 7.13942 26.069 0 16.7473 0C7.5837 0 0 7.13942 0 16.024C0 23.7981 5.84577 30.3029 13.5875 31.7308C14.8514 32.0481 15.6414 32.2067 16.4313 33C17.2213 31.4135 17.3793 28.2404 17.3793 26.4952V23.4808Z" fill="white"/>
<path d="M85.1586 24.5914V7.45679H93.5322C97.9561 7.45679 100.01 9.36063 100.168 11.7404C100.168 12.851 100.01 13.9616 99.22 14.7549C98.43 15.5481 98.1141 15.8654 96.6921 16.6587L103.012 24.7501H98.43L92.7423 17.452H88.9504V24.5914H85.1586ZM88.9504 15.2308H90.6884C95.2702 15.2308 96.2181 14.4376 96.2181 12.2164C96.2181 9.99525 94.1642 9.67794 91.1623 9.67794H88.9504V15.2308Z" fill="white"/>
<path d="M47.7141 24.5914L55.1398 7.45679H59.7216L67.1473 24.5914H62.5655L60.5116 19.9904H52.6119L50.558 24.5914H47.7141ZM53.5599 17.7693H59.4056L56.4038 10.9472L53.5599 17.7693Z" fill="white"/>
<path d="M76.3109 7.45679H72.3611V24.5914H76.3109V7.45679Z" fill="white"/>
<path d="M131.451 23.9567C129.555 24.7499 127.185 25.0673 124.341 25.0673C121.023 25.0673 118.337 24.274 116.441 22.6874C114.545 21.1009 113.598 18.8798 113.598 16.024C113.598 13.1682 114.545 10.7884 116.441 9.36052C118.337 7.77398 121.023 6.98071 124.657 6.98071C126.869 6.98071 129.081 7.13937 131.451 7.61533V10.4711C128.923 9.67783 126.553 9.36052 124.815 9.36052C122.603 9.36052 121.023 9.99514 119.759 11.1057C118.653 12.2163 118.021 13.9615 118.021 16.024C118.021 18.0865 118.653 19.673 119.917 20.9423C121.181 22.0528 122.919 22.6874 125.131 22.6874C127.185 22.6874 129.397 22.2115 131.451 21.4182V23.9567Z" fill="white"/>
<path d="M136.349 24.5914L143.774 7.45679H148.356L155.782 24.5914H151.2L149.146 19.9904H141.246L139.193 24.5914H136.349ZM142.352 17.7693H148.198L145.354 10.9472L142.352 17.7693Z" fill="white"/>
<path d="M185.801 24.5914L193.226 7.45679H197.808L205.234 24.5914H200.652L198.598 19.9904H190.698L188.645 24.5914H185.801ZM191.646 17.7693H197.492L194.49 10.9472L191.646 17.7693Z" fill="white"/>
<path d="M241.414 10.9472L244.416 17.7693H238.57L241.414 10.9472ZM240.15 7.45679L232.725 24.5914H235.569L237.623 19.9904H245.522L247.576 24.5914H252.158L244.732 7.45679H240.15Z" fill="white"/>
<path d="M161.47 24.5914V7.45679H166.051L176.795 19.6731V7.45679H180.113V24.5914H175.847L164.787 11.7404V24.5914H161.47Z" fill="white"/>
<path d="M210.764 24.5914V7.45679H218.979C221.981 7.45679 224.193 8.25006 225.773 9.51929C227.353 10.9472 228.143 13.0097 228.143 15.5481C228.143 18.4039 227.353 20.6251 225.615 22.0529C223.877 23.6395 221.665 24.4327 218.663 24.4327H210.764V24.5914ZM214.714 22.2116H217.715C219.769 22.2116 221.349 21.7356 222.455 20.6251C223.561 19.5145 224.035 18.0866 224.035 15.8654C224.035 14.2789 223.561 12.851 222.771 11.7404C222.139 10.9472 221.507 10.4712 220.717 10.1539C219.927 9.8366 218.821 9.67794 217.241 9.67794H214.872V22.2116H214.714Z" fill="white"/>
</g>
<defs>
<clipPath id="clip0_184_537">
<rect width="252" height="33" fill="white"/>
</clipPath>
</defs>
</svg>
