<svg width="252" height="82" viewBox="0 0 252 82" fill="none" xmlns="http://www.w3.org/2000/svg">
<g clip-path="url(#clip0_183_508)">
<path d="M0 38.4912H34.0789L32.2176 41.0275H0V38.4912Z" fill="white"/>
<path d="M0 33.7854H37.5411L35.6764 36.3183H0V33.7854Z" fill="white"/>
<path d="M0 43.2007H30.6188L28.7657 45.7196H0V43.2007Z" fill="white"/>
<path d="M252 41.0276H218.054L219.915 38.4929H252V41.0276Z" fill="white"/>
<path d="M252 45.7196L214.602 45.7231L216.455 43.2007H252V45.7196Z" fill="white"/>
<path d="M223.374 33.7854H252V36.3199L221.512 36.3217L223.374 33.7854Z" fill="white"/>
<path d="M33.0076 45.7196L49.1793 23.7214H69.247C71.4651 23.7214 71.4361 24.5646 70.3521 26.0353C69.2513 27.5286 67.3777 30.0963 66.2566 31.6122C65.6875 32.3823 64.6583 33.7853 68.068 33.7853H94.9524C92.7166 36.8519 85.4644 45.7196 72.4418 45.7196H33.0076Z" fill="white"/>
<path d="M125.621 33.7834L116.853 45.7195H93.7195C93.7195 45.7195 102.485 33.7852 102.492 33.7852L125.621 33.7834Z" fill="white"/>
<path d="M159.074 33.7854L150.3 45.7197H127.176C127.176 45.7197 135.941 33.7854 135.949 33.7854H159.074Z" fill="white"/>
<path d="M166.596 33.7854C166.597 33.7854 164.907 36.0993 164.086 37.2101C161.181 41.1407 163.748 45.7197 173.228 45.7197H210.366L219.138 33.7854H166.596Z" fill="white"/>
<path d="M44.3167 10.0417L36.2654 20.9938H80.1453C82.363 20.9938 82.3339 21.837 81.2501 23.3077C80.1493 24.7993 78.3066 27.3965 77.1854 28.9124C76.6162 29.6808 75.5872 31.0837 78.9969 31.0837H96.9408C96.9408 31.0837 99.833 27.1427 102.257 23.8484C105.556 19.3667 102.544 10.0417 90.7522 10.0417H44.3167Z" fill="white"/>
<path d="M161.06 31.0837H104.48L119.952 10.0417H143.077L134.21 22.1066H144.532L153.405 10.0417H176.527L161.06 31.0837Z" fill="white"/>
<path d="M208.554 10.0417L193.085 31.0837H168.58C168.58 31.0837 184.054 10.0417 184.062 10.0417H208.554Z" fill="white"/>
<path d="M82.5979 71.9584V55.2454H93.7264V58.5118H86.3917V61.9305H92.9676V65.0706H86.3917V68.6917H93.9789V71.9582L82.5979 71.9584Z" fill="white"/>
<path d="M95.3703 71.9584L99.4168 65.5266L95.6485 59.0439H99.6699L101.769 63.0193H102.174L104.273 59.0439H108.118L104.349 65.5266L108.396 71.9584H104.374L101.997 67.9321H101.592L99.2146 71.9584H95.3703Z" fill="white"/>
<path d="M110.166 76.7695V59.0439H113.631V61.2722C113.985 60.4959 114.495 59.8879 115.161 59.449C115.827 59.01 116.59 58.7905 117.45 58.7905C118.9 58.7905 120.034 59.3438 120.851 60.4491C121.669 61.5551 122.078 63.0702 122.078 64.9947V66.0078C122.078 67.9323 121.669 69.4478 120.851 70.553C120.034 71.659 118.9 72.2119 117.45 72.2119C115.78 72.2119 114.575 71.4353 113.833 69.8819V76.7696L110.166 76.7695ZM116.059 61.8798C115.131 61.8798 114.39 62.2765 113.833 63.0701V67.9573C114.389 68.7339 115.131 69.122 116.059 69.122C116.817 69.122 117.399 68.8478 117.804 68.2993C118.209 67.7508 118.411 66.9616 118.411 65.9315V65.0705C118.411 64.041 118.209 63.2517 117.804 62.7027C117.399 62.1542 116.817 61.8798 116.059 61.8798Z" fill="white"/>
<path d="M124.86 71.9584V59.0438H128.326V62.2595C128.51 61.6857 128.76 61.1412 129.071 60.6262C129.383 60.1116 129.788 59.6892 130.286 59.3601C130.783 59.0307 131.403 58.8665 132.144 58.8665C132.297 58.8665 132.436 58.8708 132.563 58.8791C132.688 58.8878 132.844 58.9087 133.03 58.9421V62.3356C132.894 62.3191 132.747 62.3065 132.587 62.2977C132.427 62.2895 132.271 62.2851 132.12 62.2851C131.191 62.2851 130.432 62.462 129.843 62.8166C129.253 63.1713 128.814 63.5511 128.527 63.9561V71.9581L124.86 71.9584Z" fill="white"/>
<path d="M140.693 72.2623C138.753 72.2623 137.206 71.7138 136.052 70.6164C134.896 69.5189 134.319 67.9826 134.319 66.0078V64.9947C134.319 63.0537 134.854 61.5256 135.925 60.4113C136.995 59.297 138.424 58.7397 140.212 58.7397C142.016 58.7397 143.412 59.2969 144.398 60.4113C145.384 61.5257 145.878 63.0703 145.878 65.0451V66.6154H137.962C138.164 68.4221 139.167 69.3247 140.971 69.3247C141.561 69.3247 142.105 69.2404 142.602 69.0717C143.1 68.9031 143.593 68.658 144.082 68.3372L145.574 70.6416C144.933 71.1314 144.204 71.5239 143.386 71.8193C142.568 72.1144 141.67 72.2623 140.693 72.2623ZM140.136 61.6773C139.412 61.6773 138.872 61.9098 138.517 62.3736C138.164 62.8382 137.962 63.4923 137.91 64.3363H142.362C142.311 63.4923 142.109 62.8382 141.755 62.3736C141.401 61.9099 140.861 61.6773 140.136 61.6773Z" fill="white"/>
<path d="M152.402 72.2623C151.356 72.2623 150.429 72.1271 149.62 71.8572C148.811 71.5872 148.052 71.157 147.344 70.5655L148.811 68.2108C149.889 69.0209 151.07 69.426 152.351 69.426C153.683 69.426 154.35 69.0297 154.35 68.236C154.35 67.6789 153.885 67.299 152.958 67.0965L151.567 66.7927C150.404 66.5394 149.514 66.0708 148.9 65.3872C148.283 64.7035 147.976 63.8469 147.976 62.8168C147.976 61.5343 148.435 60.5338 149.354 59.8163C150.273 59.0988 151.542 58.7397 153.16 58.7397C155.066 58.7397 156.71 59.2382 158.092 60.2339L156.702 62.5891C155.774 61.9142 154.721 61.576 153.54 61.576C152.326 61.576 151.719 61.9477 151.719 62.6904C151.719 63.298 152.183 63.7031 153.11 63.906L154.527 64.2098C156.92 64.7331 158.118 66.0165 158.118 68.0588C158.118 69.3927 157.616 70.4266 156.613 71.161C155.609 71.895 154.206 72.2623 152.402 72.2623Z" fill="white"/>
<path d="M164.694 72.2623C163.649 72.2623 162.722 72.1271 161.912 71.8572C161.103 71.5872 160.345 71.157 159.636 70.5655L161.103 68.2108C162.182 69.0209 163.362 69.426 164.644 69.426C165.975 69.426 166.642 69.0297 166.642 68.236C166.642 67.6789 166.178 67.299 165.251 67.0965L163.86 66.7927C162.696 66.5394 161.807 66.0708 161.192 65.3872C160.576 64.7035 160.268 63.8469 160.268 62.8168C160.268 61.5343 160.727 60.5338 161.647 59.8163C162.565 59.0988 163.835 58.7397 165.453 58.7397C167.358 58.7397 169.003 59.2382 170.385 60.2339L168.994 62.5891C168.067 61.9142 167.013 61.576 165.832 61.576C164.619 61.576 164.012 61.9477 164.012 62.6904C164.012 63.298 164.475 63.7031 165.402 63.906L166.819 64.2098C169.213 64.7331 170.41 66.0165 170.41 68.0588C170.41 69.3927 169.908 70.4266 168.905 71.161C167.902 71.895 166.498 72.2623 164.694 72.2623Z" fill="white"/>
</g>
<defs>
<clipPath id="clip0_183_508">
<rect width="252" height="82" fill="white"/>
</clipPath>
</defs>
</svg>
