<svg width="206" height="117" viewBox="0 0 206 117" fill="none" xmlns="http://www.w3.org/2000/svg">
<path d="M71.0585 2.37048C80.4268 1.1128 89.8995 0.560143 99.3686 0.288294C101.551 -0.0104406 103.764 0.0463191 105.967 0.0134582C110.481 0.0522938 115.023 -0.150846 119.516 0.294269C148.236 1.03214 176.943 3.63412 205.065 8.76938C200.645 8.67976 196.242 8.23165 191.822 8.1271C172.682 7.36532 153.428 8.2436 134.542 11.0846C131.918 11.446 129.378 12.1391 126.82 12.7366C119.624 14.52 112.448 16.5126 105.755 19.4342C102.472 20.9398 99.1462 22.6396 96.8528 25.2177C96.1786 26.0542 95.3099 27.0549 95.706 28.1304C96.2759 29.3164 97.7701 29.8601 99.0698 30.2962C103.181 31.527 107.562 31.8317 111.868 32.1812C125.476 33.3493 139.073 34.5831 152.653 35.9752C162.066 36.9879 171.501 37.9378 180.821 39.4943C182.888 39.9214 185.109 40.1395 186.922 41.1761C182.162 41.8961 177.321 42.1978 172.522 42.6967C150.846 44.6683 129.103 46.0365 107.357 47.2584C105.259 47.4466 103.052 47.6915 101.238 48.6923C99.9767 49.3704 99.2331 50.8342 99.862 52.0531C100.456 53.1793 101.704 53.9202 102.93 54.4997C106.006 55.9038 109.418 56.6237 112.792 57.2959C119.933 58.6193 127.203 59.3422 134.465 59.9486C144.091 60.7373 153.751 61.1764 163.408 61.5708C162.449 62.464 161.041 62.8015 159.742 63.169C155.843 64.1429 151.809 64.6238 147.795 65.0928C136.561 66.2967 125.253 66.9121 113.953 67.4529C105.728 67.6201 97.4852 67.6231 89.274 67.1003C83.4848 66.6881 77.6504 66.1205 72.1044 64.5671C69.5295 63.8053 66.9129 62.8165 65.0295 61.0689C63.7716 59.8978 63.1114 58.2727 63.3511 56.6835C63.6708 54.428 65.1268 52.4384 66.7079 50.6729C68.4036 48.8327 70.9195 47.7961 73.3728 46.8909C54.2434 46.3353 35.0931 45.8603 16.0263 44.3367C12.0753 43.9932 8.1174 43.6258 4.23244 42.9028C2.72086 42.5712 0.99035 42.3143 0 41.1612C1.74093 39.8557 4.05175 39.4375 6.22357 38.9565C11.2622 37.9438 16.3807 37.2866 21.4958 36.6473C32.7406 35.2821 44.041 34.2813 55.331 33.2626C49.3577 31.1954 43.3078 29.173 37.8383 26.2035C35.3572 24.8204 32.8761 23.264 31.2534 21.0982C30.1518 19.6762 29.8425 17.7613 30.7356 16.2019C31.792 14.3019 33.8213 12.9935 35.8368 11.8882C39.8364 9.79105 44.2565 8.387 48.6939 7.14127C56.0191 5.14274 63.5249 3.65802 71.0585 2.37048Z" fill="white"/>
<path d="M120.489 81.2248C121.775 81.2218 123.064 81.2068 124.353 81.2487C124.527 85.3085 124.409 89.3772 124.412 93.443C123.088 93.5058 121.764 93.4998 120.44 93.458C120.388 89.3832 120.291 85.2965 120.489 81.2248Z" fill="white"/>
<path d="M65.4257 81.4637C66.7531 81.2307 68.1257 81.2635 69.46 81.4428C69.7172 83.5249 69.5191 85.625 69.5782 87.7162C69.5156 89.6998 69.7241 91.6983 69.4496 93.673C68.1187 93.8462 66.7357 93.9149 65.4187 93.6341C65.3214 89.5803 65.3075 85.5175 65.4257 81.4637Z" fill="white"/>
<path d="M72.4901 81.3411C75.1762 81.2724 77.8762 81.2575 80.5623 81.3351C81.094 81.6757 80.7152 82.3897 80.8264 82.8856C78.0674 83.0857 75.2874 82.9513 72.5179 82.9632C72.4936 82.4225 72.4832 81.8818 72.4901 81.3411Z" fill="white"/>
<path d="M114.502 81.4933C115.819 81.3559 117.15 81.3649 118.47 81.4664C118.609 84.9497 118.495 88.4359 118.533 91.9192C118.647 92.8632 117.963 93.9685 116.733 93.9356C110.711 94.0043 104.682 93.9356 98.6597 93.9655C98.2115 94.0282 97.513 93.9147 97.3149 94.3718C97.1064 95.2531 97.2802 96.1761 96.9675 97.0455C95.6678 97.1022 94.3543 97.1351 93.0582 96.9917C92.9261 96.0417 92.9817 95.0858 92.9261 94.1358C91.6474 93.858 89.7153 94.2642 89.1524 92.9169C88.8188 91.1006 89.0829 89.2365 88.9995 87.4053C88.8813 86.4822 89.486 85.3918 90.6918 85.353C92.8358 85.2693 95.0145 85.1887 97.1516 85.4396C97.447 87.5367 96.9779 89.6727 97.44 91.7549C99.5841 91.8863 101.735 91.7877 103.883 91.8176C105.067 91.7937 106.287 91.9341 107.444 91.6384C107.483 90.2343 107.562 88.8213 107.361 87.4232C105.113 87.1842 102.84 87.4531 100.588 87.2529C100.453 86.5897 100.366 85.8997 100.706 85.2723C103.618 85.3022 106.53 85.2335 109.442 85.2992C110.419 85.2783 111.242 85.9773 111.27 86.8108C111.385 88.3642 111.263 89.9236 111.354 91.477C112.313 91.8236 113.362 91.6951 114.37 91.6354C114.575 88.2597 114.418 84.872 114.502 81.4933Z" fill="white"/>
<path d="M128.332 81.4844C129.649 81.3589 130.98 81.3649 132.3 81.4694C132.352 82.7211 132.255 83.9818 132.436 85.2275C134.962 85.359 137.495 85.1738 140.022 85.2992C141.088 85.344 141.926 86.1895 141.836 87.1036C141.836 88.8034 141.884 90.5092 141.808 92.209C141.811 93.1649 140.779 93.8968 139.691 93.8132C135.518 93.8251 131.341 93.843 127.168 93.7982C126.508 93.1679 125.993 92.43 125.722 91.6115C126.532 91.3635 127.397 91.3606 128.245 91.2948C128.419 88.0267 128.242 84.7525 128.332 81.4844ZM132.342 87.1753C132.182 88.6092 132.154 90.064 132.363 91.495C134.208 91.5517 136.06 91.5637 137.905 91.489C138.128 90.0641 138.079 88.6122 137.923 87.1842C136.071 87.0229 134.198 87.0379 132.342 87.1753Z" fill="white"/>
<path d="M154.866 81.422C156.18 81.3891 157.497 81.3682 158.81 81.4668C158.88 82.7155 158.81 83.9672 158.918 85.2129C161.417 85.3713 163.925 85.201 166.427 85.2996C167.314 85.3055 168.193 85.8612 168.297 86.6469C168.488 88.26 168.179 89.8941 168.478 91.5013C171.946 91.5431 175.417 91.6088 178.885 91.5013C179.139 90.0763 179.093 88.6185 178.899 87.1935C176.758 86.9426 174.593 87.2025 172.449 87.0352C171.678 86.6857 172.147 85.7387 172.105 85.1382C175.073 85.0008 178.051 85.0845 181.022 85.0845C181.849 85.0397 182.61 85.5565 182.77 86.2555C183.076 87.9613 182.634 89.7119 183.051 91.4087C184.059 91.4475 185.095 91.5461 186.082 91.2892C186.168 87.9941 186.029 84.6991 186.151 81.407C187.468 81.3712 188.785 81.3652 190.102 81.413C190.185 84.8126 190.119 88.2152 190.14 91.6148C190.22 92.4632 189.723 93.5178 188.615 93.6104C186.669 93.7358 184.712 93.6253 182.763 93.6641C173.728 93.6313 164.693 93.7299 155.659 93.7209C154.331 93.7269 152.993 93.6552 151.68 93.8434C151.569 94.7904 151.586 95.7433 151.451 96.6873C150.123 96.8696 148.754 96.8994 147.434 96.6664C147.361 95.7164 147.364 94.7605 147.187 93.8195C146.044 93.6074 144.417 93.8464 143.868 92.7112C143.444 91.2832 143.764 89.7746 143.663 88.3138C143.715 87.2473 143.34 85.7477 144.706 85.1651C145.981 84.7588 147.381 85.0068 148.716 84.9381C149.81 84.9052 151.325 84.9321 151.735 86.0165C152.18 87.8776 151.722 89.8164 152.118 91.6895C152.955 91.7044 153.796 91.6985 154.634 91.6746C155.082 88.2779 154.634 84.8335 154.866 81.422ZM158.904 87.2144C158.828 88.6305 158.79 90.0554 158.936 91.4714C160.777 91.5222 162.664 91.6656 164.485 91.4177C164.801 90.0435 164.582 88.6125 164.568 87.2174C162.695 87.0023 160.777 87.0083 158.904 87.2144Z" fill="white"/>
<path d="M177.818 81.4667C179.201 81.3711 180.598 81.3472 181.981 81.4996C181.967 82.0224 181.953 82.5452 181.922 83.0679C180.577 83.1098 179.236 83.0978 177.895 83.0859C177.818 82.5481 177.801 82.0074 177.818 81.4667Z" fill="white"/>
<path d="M192.083 81.3712C193.403 81.3084 194.731 81.3114 196.055 81.3652C196.1 85.3563 196.131 89.3474 196.037 93.3355C194.724 93.3683 193.414 93.3713 192.104 93.3295C192.01 89.3444 192.051 85.3563 192.083 81.3712Z" fill="white"/>
<path d="M37.9078 81.7861C39.2318 81.6188 40.5974 81.5681 41.9144 81.816C42.0499 85.8728 42.0291 89.9416 41.9248 93.9984C40.5939 94.2404 39.2144 94.2016 37.8765 94.0253C37.6472 91.3307 37.8314 88.6212 37.7723 85.9236C37.8036 84.5435 37.6646 83.1543 37.9078 81.7861Z" fill="white"/>
<path d="M59.977 81.6697C61.3009 81.6248 62.6249 81.6159 63.9453 81.6846C63.9836 85.1887 63.9836 88.6929 63.9523 92.1971C64.0044 93.0873 63.2747 93.9895 62.1766 94.0044C57.2839 94.1866 52.3635 93.8521 47.4812 94.1717C47.377 95.3188 47.4256 96.469 47.3596 97.6191C46.0704 97.646 44.7742 97.7147 43.499 97.5235C43.1966 94.9633 43.4364 92.3793 43.3634 89.8072C43.3878 88.3643 43.2766 86.9184 43.4642 85.4815C44.7326 85.5831 46.2615 85.1828 47.3631 85.6847C47.4777 87.7549 47.3631 89.8311 47.4082 91.9043C48.7252 92.0417 50.07 92.0597 51.3801 91.8655C51.5086 91.2083 51.6302 90.5242 51.4391 89.8669C50.9665 89.374 50.1499 89.3113 49.5106 89.0454C49.4341 87.8804 49.3889 86.7033 49.5766 85.5413C52.1862 85.3262 54.8411 85.3859 57.4542 85.4905C57.5411 85.5622 57.7148 85.7026 57.8017 85.7743C57.9615 86.8587 57.8608 87.958 57.8225 89.0484C57.2388 89.2515 56.6167 89.3919 56.0747 89.6757C55.5361 90.2941 55.8557 91.1366 55.9774 91.8356C57.277 92.0208 58.6079 91.9939 59.911 91.8446C59.9874 88.4539 59.8554 85.0603 59.977 81.6697Z" fill="white"/>
<path d="M10.6958 82.1359C13.4479 82.1329 16.2035 82.0762 18.9522 82.1688C18.9695 82.6886 18.973 83.2114 18.973 83.7341C16.207 83.8327 13.4375 83.7789 10.6714 83.764C10.6402 83.2203 10.6436 82.6766 10.6958 82.1359Z" fill="white"/>
<path d="M27.5977 85.6817C27.5004 84.7944 28.6611 84.4539 29.4985 84.4867C31.5209 84.4927 33.5537 84.3672 35.5622 84.5913C35.7707 87.026 35.6005 89.4726 35.663 91.9133C35.6248 92.6242 35.7777 93.4786 35.1383 94.0373C34.5232 94.6407 33.5086 94.572 32.6642 94.6138C26.0479 94.6049 19.4317 94.6288 12.8155 94.6019C11.6965 94.6825 10.3726 94.1896 10.324 93.0933C10.2301 91.1993 10.2753 89.3023 10.2962 87.4083C10.251 86.5181 11.0884 85.6727 12.1587 85.7085C14.4105 85.6817 16.6761 85.61 18.9278 85.7743C19.2197 87.7907 18.9105 89.8311 19.1155 91.8535C19.807 91.8625 20.4985 91.8625 21.19 91.8505C21.3533 89.8251 21.1066 87.7877 21.3394 85.7653C22.639 85.6219 23.9595 85.5861 25.2626 85.7085C25.9159 85.7235 25.7665 86.4375 25.8151 86.8109C25.8325 88.4838 25.7838 90.1597 25.8325 91.8356C27.7611 91.8983 29.6966 91.8894 31.6252 91.8386C31.6564 91.1963 31.6564 90.557 31.6321 89.9177C30.3429 89.8311 28.6784 90.2224 27.7263 89.2575C27.4309 88.0924 27.6151 86.8706 27.5977 85.6817Z" fill="white"/>
<path d="M72.8724 85.8401C73.2894 85.1948 74.2276 85.0633 75.0129 85.0783C76.3925 85.0843 77.7755 85.0305 79.1515 85.1201C79.9438 85.1589 80.6631 85.6967 80.7987 86.3718C81.0801 88.1642 80.6075 90.0074 81.1044 91.7789C81.8064 91.8177 82.5083 91.8088 83.2102 91.758C83.6655 89.5832 83.245 87.3546 83.5404 85.1649C84.8469 84.9827 86.1778 85.0275 87.4948 85.1171C87.877 87.3606 87.5782 89.6489 87.6686 91.9103C87.8041 92.8812 87.0535 93.9865 85.806 93.9387C82.0983 93.9865 78.3836 93.9597 74.6759 93.9537C73.7793 94.0045 72.8203 93.5534 72.6674 92.7438C72.4172 91.3786 72.6118 89.9895 72.5492 88.6153C72.5979 87.6922 72.3789 86.6974 72.8724 85.8401Z" fill="white"/>
<path d="M79.1724 95.5997C81.9141 95.6057 84.6523 95.5519 87.3906 95.6326C87.4149 96.1494 87.4253 96.6692 87.4288 97.192C84.6593 97.2906 81.8863 97.2338 79.1168 97.2248C79.0855 96.6811 79.0959 96.1374 79.1724 95.5997Z" fill="white"/>
<path d="M34.9055 101.338C36.1843 101.225 37.4735 101.24 38.7522 101.315C39.1797 102.626 38.9121 104 38.9816 105.341C38.9225 108.036 39.1067 110.74 38.8773 113.428C37.543 113.619 36.1634 113.64 34.8325 113.419C34.6762 110.731 34.8013 108.033 34.763 105.341C34.7943 104.006 34.6449 102.659 34.9055 101.338Z" fill="white"/>
<path d="M75.1102 102.435C76.4828 102.357 77.8624 102.366 79.2384 102.423C79.2489 102.955 79.2384 103.486 79.1933 104.018C77.8485 104.054 76.5002 104.057 75.1519 104.012C75.1241 103.486 75.1137 102.961 75.1102 102.435Z" fill="white"/>
<path d="M101.933 102.441C103.306 102.351 104.685 102.378 106.065 102.405C106.099 102.946 106.089 103.492 106.009 104.033C104.661 104.045 103.309 104.069 101.961 103.997C101.943 103.477 101.933 102.958 101.933 102.441Z" fill="white"/>
<path d="M40.7156 104.735C41.7267 104.604 42.7518 104.684 43.77 104.66C44.0966 104.962 44.4198 105.267 44.7569 105.563C45.0071 105.261 45.2573 104.959 45.504 104.657C49.9032 104.687 54.3059 104.649 58.7052 104.675C59.2195 104.622 59.8206 104.843 59.7094 105.377C59.7094 108.057 59.7893 110.743 59.6538 113.422C57.8469 113.649 56.0121 113.494 54.1913 113.536C52.1133 113.497 50.0248 113.631 47.9538 113.446C47.7731 111.66 47.8634 109.861 47.8912 108.072C50.5947 108.006 53.3052 108.135 56.0086 107.991C55.9739 107.651 55.9322 107.313 55.8835 106.979C52.7804 106.973 49.6739 106.946 46.5708 106.988C45.643 106.976 44.6804 107.552 44.6318 108.395C44.4963 110.08 44.7082 111.773 44.5102 113.455C43.1584 113.578 41.7615 113.685 40.4271 113.387C40.3264 110.641 40.3333 107.887 40.4098 105.144C40.4862 105.043 40.6391 104.837 40.7156 104.735ZM51.8283 109.924C51.8144 110.354 51.8109 110.788 51.8214 111.221C53.0897 111.331 54.365 111.31 55.6368 111.251C55.7028 110.797 55.6959 110.339 55.6229 109.891C54.3615 109.769 53.0828 109.742 51.8283 109.924Z" fill="white"/>
<path d="M61.8291 104.777C65.6342 104.592 69.4635 104.609 73.2685 104.765C73.5257 107.241 73.3311 109.73 73.3902 112.212C73.3207 113.805 73.6021 115.433 73.133 116.992H69.3002C69.1751 115.848 69.1959 114.692 68.9944 113.554C66.6002 113.449 64.206 113.595 61.8152 113.449C61.6797 110.56 61.6241 107.66 61.8291 104.777ZM65.4222 106.847C65.3353 108.281 65.2832 109.727 65.4604 111.158C66.6836 111.212 67.9102 111.203 69.1334 111.176C69.4844 109.739 69.2898 108.251 69.2029 106.796C67.945 106.73 66.6732 106.686 65.4222 106.847Z" fill="white"/>
<path d="M75.4508 104.726C76.6844 104.601 77.9388 104.63 79.169 104.789C79.4226 106.055 79.2871 107.349 79.3149 108.628C79.2801 110.223 79.4122 111.827 79.2106 113.419C77.8693 113.578 76.4898 113.634 75.1624 113.386C75.0025 110.999 75.1346 108.61 75.079 106.226C75.1381 105.724 74.9157 105.085 75.4508 104.726Z" fill="white"/>
<path d="M88.6068 104.78C90.6744 104.553 92.7663 104.714 94.8477 104.669C96.547 104.714 98.2671 104.535 99.9489 104.807C100.161 107.672 100.192 110.56 99.9976 113.428C98.1802 113.688 96.3315 113.503 94.5003 113.551C92.4362 113.497 90.3616 113.652 88.308 113.431C88.1134 111.654 88.1863 109.864 88.2454 108.084C90.9489 107.994 93.6559 108.135 96.3593 107.997C96.3246 107.654 96.2864 107.313 96.2447 106.973C93.6697 106.934 91.0879 107.041 88.5165 106.91C88.4226 106.196 88.4018 105.476 88.6068 104.78ZM92.4918 109.879C91.9045 110.118 92.2172 110.77 92.1582 111.203C93.4578 111.322 94.7817 111.379 96.0744 111.167C96.0744 110.773 96.0709 110.375 96.0674 109.981C94.8999 109.733 93.6732 109.724 92.4918 109.879Z" fill="white"/>
<path d="M101.898 106.226C101.982 105.718 101.666 104.792 102.531 104.714C103.716 104.633 104.956 104.544 106.1 104.896C106.186 107.693 106.138 110.492 106.127 113.288C104.852 113.739 103.445 113.488 102.11 113.494C101.648 111.101 102.037 108.642 101.898 106.226Z" fill="white"/>
<path d="M107.896 104.899C108.866 104.445 110.054 104.744 111.114 104.672C111.357 104.971 111.607 105.267 111.857 105.563C112.125 105.27 112.396 104.977 112.66 104.681C114.797 104.717 116.955 104.517 119.071 104.81C119.381 106.865 119.078 108.941 119.269 111.006C120.006 111.14 120.764 111.143 121.5 111.003C121.685 108.935 121.344 106.853 121.671 104.798C122.988 104.61 124.35 104.58 125.663 104.813C125.966 106.856 125.681 108.917 125.879 110.967C126.605 111.161 127.363 111.14 128.099 110.997C128.287 108.932 127.991 106.856 128.301 104.801C131.609 104.502 134.959 104.747 138.284 104.669C140.717 104.72 143.159 104.547 145.585 104.774C145.832 107.663 145.814 110.581 145.661 113.473C143.208 113.652 140.744 113.509 138.284 113.545C136.832 113.5 135.355 113.67 133.927 113.381C133.861 111.618 133.892 109.852 133.902 108.087C136.616 107.973 139.337 108.174 142.047 107.964C142.013 107.639 141.978 107.316 141.943 106.997C138.819 106.973 135.692 106.907 132.571 107.035C132.245 108.738 132.585 110.471 132.366 112.18C132.238 113.022 131.272 113.611 130.309 113.533C126.011 113.542 121.716 113.533 117.417 113.539C116.49 113.584 115.357 113.285 115.086 112.425C114.693 110.725 115.225 108.953 114.825 107.262C114.019 106.814 112.907 107.008 112.038 107.253C111.875 109.309 112.128 111.373 111.885 113.425C110.544 113.572 109.161 113.643 107.834 113.375C107.691 111.194 107.809 109.01 107.764 106.826C107.785 106.184 107.684 105.521 107.896 104.899ZM137.891 109.891C137.825 110.339 137.825 110.793 137.878 111.248C139.146 111.31 140.425 111.331 141.69 111.218C141.679 110.805 141.804 110.366 141.613 109.972C140.418 109.622 139.122 109.835 137.891 109.891Z" fill="white"/>
<path d="M147.771 104.81C149.084 104.589 150.446 104.607 151.767 104.798C152.114 106.904 151.729 109.043 152 111.155C153.105 111.206 154.21 111.203 155.318 111.182C155.686 109.1 155.342 106.979 155.516 104.884C156.851 104.538 158.314 104.568 159.655 104.869C159.78 106.931 159.641 108.992 159.742 111.053C162.741 111.289 165.764 111.134 168.773 111.17C168.783 110.71 168.787 110.253 168.79 109.796C166.4 109.619 163.995 109.769 161.601 109.676C161.347 108.057 161.378 106.396 161.59 104.777C165.173 104.55 168.783 104.699 172.376 104.711C172.397 105.428 172.397 106.151 172.376 106.871C170.18 106.955 167.977 106.847 165.781 106.94C165.771 107.268 165.767 107.594 165.764 107.923C167.97 107.991 170.18 107.899 172.387 107.982C172.422 109.291 172.491 110.602 172.376 111.911C172.3 112.699 171.588 113.491 170.615 113.512C167.098 113.622 163.568 113.416 160.061 113.604C159.224 114.366 159.909 115.645 159.495 116.601C158.161 116.687 156.816 116.735 155.492 116.55C155.263 115.588 155.766 114.447 155.096 113.607C152.667 113.362 150.193 113.739 147.767 113.404C147.559 110.548 147.548 107.663 147.771 104.81Z" fill="white"/>
</svg>
