<svg width="250" height="42" viewBox="0 0 250 42" fill="none" xmlns="http://www.w3.org/2000/svg">
<path fill-rule="evenodd" clip-rule="evenodd" d="M147.436 37.4346L148.943 33.1302C149.206 32.3931 149.912 31.9688 150.527 32.1832C150.975 32.3406 151.251 32.7606 151.268 33.2811C151.279 33.4014 151.299 33.5589 151.393 33.7054C152.736 36.096 155.817 37.6927 159.525 37.4324C162.718 37.2071 163.976 35.1381 163.801 32.6468C163.735 31.7107 163.105 30.7615 162.873 30.4422C162.477 29.9282 155.778 21.8793 155.778 21.8793C154.284 19.8627 153.307 17.4196 153.118 14.7403C152.591 7.20984 158.177 0.69421 167.162 0.0664864C172.812 -0.340332 177.254 1.15133 180.616 3.74096L179.129 7.97754C178.87 8.71463 178.162 9.13894 177.549 8.9246C177.101 8.76712 176.825 8.34718 176.808 7.82882C176.797 7.70633 176.775 7.54886 176.683 7.40231C175.321 5.03578 172.753 3.496 169.067 3.75627C165.872 3.97937 164.089 6.22561 164.269 8.82836C164.306 9.33798 164.433 9.81697 164.614 10.2675C164.997 11.1862 165.476 12.0588 166.062 12.8419L169.776 17.2928L171.484 19.3684C172.983 21.3806 174.789 23.769 174.977 26.4527C175.502 33.9788 169.916 40.4923 160.933 41.1222C155.284 41.529 150.8 40.0264 147.436 37.4346ZM216.82 37.4346L218.327 33.1302C218.585 32.3931 219.294 31.9688 219.911 32.1832C220.357 32.3406 220.633 32.7606 220.65 33.2811C220.661 33.4014 220.681 33.5589 220.775 33.7054C222.118 36.096 225.199 37.6927 228.907 37.4324C232.1 37.2071 233.358 35.1381 233.185 32.6468C233.119 31.7107 232.489 30.7615 232.258 30.4422C231.862 29.9282 225.16 21.8793 225.16 21.8793C223.666 19.8627 222.689 17.4196 222.5 14.7403C221.973 7.20984 227.559 0.69421 236.544 0.0664864C242.192 -0.340332 246.634 1.15133 250 3.74096L248.511 7.97754C248.252 8.71463 247.546 9.13894 246.929 8.9246C246.481 8.76712 246.205 8.34718 246.188 7.82882C246.179 7.70633 246.157 7.54886 246.065 7.40231C244.703 5.03578 242.135 3.496 238.447 3.75627C235.254 3.97937 233.471 6.22561 233.653 8.82836C233.688 9.33798 233.815 9.81697 233.994 10.2675C234.379 11.1862 234.858 12.0588 235.442 12.8419L239.158 17.2928L240.868 19.3684C242.362 21.3806 244.173 23.769 244.357 26.4527C244.886 33.9788 239.3 40.4923 230.315 41.1222C224.666 41.529 220.184 40.0264 216.82 37.4346ZM199.025 5.34198L191.469 22.7739C190.81 24.3049 189.566 27.262 189.496 29.3179C189.496 30.9321 190.498 32.0804 191.808 32.4281C192.197 32.52 192.689 32.6534 193.109 32.6534C195.237 32.6534 197.083 31.3673 197.877 29.5257L210.02 1.36567L223.97 1.36786C224.145 1.3613 224.32 1.38973 224.491 1.46191C225.125 1.73093 225.401 2.45271 225.149 3.08918C224.983 3.50693 224.655 3.7344 224.08 3.80439C223.039 3.96843 222.61 4.44523 222.223 5.35729L215.322 21.3128C211.72 30.5887 202.676 37.1262 192.127 37.1262C188.638 37.1262 185.351 36.3235 182.383 34.8996C179.579 33.4561 177.637 30.5362 177.637 27.1679C177.709 23.7122 178.505 20.3592 179.887 17.3956L185.364 4.70988C185.388 4.64864 185.408 4.57428 185.408 4.5021C185.419 4.05373 185.071 3.82189 184.852 3.72565C184.345 3.5288 184.023 3.10886 184.023 2.61018C184.023 1.92341 184.691 1.36786 185.513 1.36786H200.753C200.928 1.3613 201.101 1.38973 201.272 1.46191C201.906 1.73093 202.182 2.45271 201.93 3.08918C201.764 3.50693 201.436 3.7344 200.86 3.80439C199.819 3.96843 199.413 4.43211 199.025 5.34198ZM122.69 17.8177H130.028L128.029 9.16738L122.69 17.8177ZM0 35.6455L13.5234 4.20683C13.5452 4.1434 13.5671 4.06685 13.5693 3.99905C13.5781 3.54849 13.2325 3.31665 13.0138 3.22041C12.5063 3.02356 12.1804 2.60362 12.1804 2.10276C12.1804 1.41817 12.8497 0.862617 13.6743 0.862617H28.3875L36.8104 0.888866C39.3738 0.888866 41.6397 2.39803 42.5846 4.61365C43.1248 5.96096 43.4069 7.41763 43.4069 8.96178C43.4069 11.3896 42.6589 13.6446 41.3925 15.5124C38.6782 19.5346 34.2295 21.9449 29.4264 21.9449H19.2582L14.7591 32.5134C14.7373 32.5725 14.7001 32.649 14.7001 32.7212C14.7001 32.9727 14.8794 33.1915 15.0938 33.2877C15.6056 33.4823 15.9271 33.9045 15.9271 34.401C15.9271 35.0899 15.26 35.6455 14.4354 35.6455H0ZM21.0845 17.8374L26.7887 4.58522C26.7887 4.58522 27.6985 4.56116 28.0048 4.60928C28.6303 4.7077 29.1071 4.85424 29.6014 5.14295C31.8848 6.48588 32.0598 10.2982 29.9907 13.6599C28.4225 16.2123 26.1435 17.8046 23.311 17.8243L21.0845 17.8374ZM55.9855 19.6243L50.6903 31.9229L63.0807 31.9316C64.0671 31.9316 64.7386 31.5926 65.2963 30.7002C65.5894 30.195 66.1493 29.9172 66.6655 29.9172C67.3545 29.9172 67.91 30.4728 67.91 31.1596C67.91 31.3455 67.8663 31.5183 67.7941 31.6757L66.064 35.652H35.1722L48.5862 4.5546C48.6015 4.49117 48.6299 4.10403 48.6234 4.03404C48.5862 3.54193 48.0197 3.28165 47.8032 3.18541C47.2936 2.98857 46.9721 2.56863 46.9721 2.06776C46.9721 1.38317 47.5429 0.856056 48.5009 0.856056H76.6347L74.5153 5.7663C74.1916 6.52087 73.4173 6.91457 72.7874 6.64336C72.3303 6.44432 72.0722 5.98283 72.0897 5.43603C72.0875 5.19982 72.0132 4.78862 71.5954 4.62021C71.532 4.59396 71.4161 4.58521 71.3505 4.58084H62.488L57.4924 16.1751L64.942 16.1664C65.7841 16.1073 66.2696 16.022 66.7748 15.2128C67.0636 14.7097 67.6257 14.4298 68.144 14.4298C68.8286 14.4298 69.2661 14.9853 69.2661 15.6721C69.2661 15.858 69.2223 16.0308 69.1501 16.1883L67.1314 20.8054C66.8077 21.5644 66.0312 21.9559 65.4013 21.6868C64.942 21.49 64.8064 21.0263 64.8261 20.4817C64.8239 20.2455 64.7473 19.8321 64.3318 19.6637C64.2858 19.6462 64.2202 19.6374 64.1612 19.6309L55.9855 19.6243ZM133.528 35.6367C132.703 35.6367 132.049 35.0877 132.049 34.401C132.049 33.9023 132.371 33.4823 132.878 33.2877C133.095 33.1893 133.456 32.9552 133.434 32.5069C133.432 32.4303 133.425 32.4019 133.408 32.3341L131.004 22.0434H120.083L113.764 32.2794C113.716 32.3844 113.705 32.4369 113.705 32.4828C113.697 32.9356 114.047 33.1652 114.263 33.2593C114.773 33.4561 115.099 33.8717 115.101 34.3725C115.105 35.0571 114.44 35.617 113.618 35.6214L107.133 35.6367C106.956 35.6433 106.779 35.6083 106.606 35.5361C105.974 35.2693 105.678 34.5388 105.947 33.9089C106.149 33.4299 106.582 33.2527 107.159 33.1827C107.973 33.0515 108.386 32.7431 108.767 32.1744L128.556 0.869179L140.678 0.866993C141.5 0.866993 142.165 1.43785 142.165 2.12463C142.165 2.62331 141.841 3.04325 141.334 3.2401C141.115 3.33852 140.785 3.5638 140.796 4.01436L148.158 35.6367H133.528ZM111.229 17.6974C111.402 17.6908 111.577 17.7193 111.752 17.7936C112.382 18.0605 112.662 18.7823 112.406 19.4209C112.242 19.8387 111.914 20.0661 111.337 20.1361C110.298 20.3002 109.88 20.742 109.493 21.6497L103.511 35.5142H91.3545L90.8405 34.5759C87.4985 35.967 84.6573 36.505 80.775 36.505C74.6028 36.505 69.5592 31.5029 69.5592 25.3329C69.5592 24.9501 69.5635 24.5717 69.6029 24.2021C71.1842 10.6175 82.691 0.000869751 96.7 0.000869751C103.45 0.000869751 107.295 1.24538 112.94 3.99249L111.448 7.55323C111.4 7.66259 111.345 7.76101 111.282 7.85287C110.901 8.40842 110.252 8.67745 109.718 8.43029C109.049 8.12627 109.202 7.71289 108.885 7.03049C108.366 5.90847 107.68 5.55195 107.242 5.25012C105.051 3.86782 103.572 3.81532 102.076 3.81532C98.5394 3.81532 95.3373 5.14076 92.8877 7.32576C87.5903 12.0195 83.894 18.347 82.8572 26.0525C82.8223 26.2865 82.8026 26.5249 82.8026 26.7699C82.8026 29.5104 84.9876 31.7676 87.7303 31.7676C91.092 31.7676 92.9336 29.8254 94.2241 26.9492L96.5906 21.3938C96.6125 21.3325 96.6453 21.1357 96.6453 21.0657C96.6453 20.3417 96.0526 20.1383 95.8338 20.0399C95.3264 19.843 94.9918 19.4362 94.9918 18.9375C94.9918 18.2508 95.5233 17.6952 96.4812 17.6952" fill="white"/>
</svg>
