<svg width="274" height="74" viewBox="0 0 274 74" fill="none" xmlns="http://www.w3.org/2000/svg">
<path d="M264.497 32.5292V20.346H252.314V32.5292H245.613V3.65503H252.314V15.1072H264.497V3.65503H271.198V32.5292H264.497Z" fill="white"/>
<path d="M120.735 3.65503V21.6862C120.735 23.6355 120.979 25.4629 121.588 26.8031C122.197 28.1432 123.05 29.3616 124.025 30.2144C125.121 31.0672 126.462 31.7982 127.923 32.1637C129.385 32.5292 131.091 32.7729 133.04 32.7729C134.868 32.7729 136.574 32.5292 138.036 32.1637C139.498 31.7982 140.716 31.0672 141.691 30.2144C142.665 29.3616 143.518 28.1432 144.005 26.8031C144.614 25.3411 144.858 23.6355 144.858 21.6862V3.65503H138.645V21.5643C138.645 23.3918 138.157 24.8538 137.305 25.9503C136.452 27.0468 134.99 27.6559 133.04 27.6559C131.091 27.6559 129.629 27.0468 128.776 25.9503C127.923 24.8538 127.436 23.3918 127.436 21.5643V3.65503H120.735Z" fill="white"/>
<path d="M101.486 32.5292V9.01563H93.6887V3.65503H116.106V6.2135C116.106 7.79731 114.887 9.01563 113.304 9.01563H108.187V32.5292H101.486Z" fill="white"/>
<path d="M208.698 3.65503H215.399V32.5292H208.698V3.65503Z" fill="white"/>
<path d="M186.525 19.0059L186.768 19.2495L195.297 30.2144C196.393 31.5545 197.977 32.4074 199.804 32.4074H205.165L192.982 16.8129L192.86 16.5692L192.982 16.3255L202.972 3.65503H196.028L186.768 16.0819L186.525 16.3255V15.8382V3.65503H179.824V32.5292H186.525V19.4932V19.0059Z" fill="white"/>
<path d="M171.174 32.5292C169.225 32.5292 167.275 31.4327 166.301 29.8489L161.062 21.3207H157.772V32.651H151.072V3.65503H163.011C166.057 3.65503 168.494 4.50785 170.077 5.96984C171.783 7.55365 172.636 9.74663 172.636 12.3051C172.636 13.6452 172.27 14.9854 171.539 16.3255C170.808 17.6657 169.59 18.7622 167.884 19.615L167.519 19.7368L175.682 32.4074H171.174V32.5292ZM157.772 16.8129H161.671C163.011 16.8129 164.108 16.4474 164.839 15.7164C165.57 14.9854 165.935 14.0107 165.935 12.7924C165.935 11.5741 165.57 10.5994 164.96 9.86846C164.229 9.13747 163.255 8.77197 161.793 8.77197H157.894V16.8129H157.772Z" fill="white"/>
<path d="M220.881 31.3109V25.8285C222.952 26.8031 225.755 27.7778 228.557 27.7778C231.846 27.7778 233.43 26.6813 233.43 24.4883C233.43 21.9298 231.237 21.6862 226.729 19.7369C223.683 18.3967 220.881 16.3256 220.881 11.4523C220.881 5.84803 225.145 3.16772 231.115 3.16772C234.283 3.16772 236.963 3.89872 238.425 4.50788V9.86848C236.963 9.13749 234.283 8.28467 231.481 8.28467C228.557 8.28467 227.216 9.38115 227.216 11.2086C227.216 13.1579 228.922 13.7671 231.846 14.8636C235.623 16.8129 240.131 17.6657 240.131 24.1228C240.131 29.7271 235.623 32.7729 229.653 32.7729C226.12 32.8947 223.196 32.2856 220.881 31.3109Z" fill="white"/>
<path d="M231.359 70.1754V41.3013H249.39V43.8597C249.39 45.4436 248.172 46.6619 246.588 46.6619H237.938V52.8753H247.684V57.7486H237.938V64.8148H249.39V70.1754H231.359Z" fill="white"/>
<path d="M165.326 70.1754V41.3013H168.615C170.565 41.3013 172.027 42.8851 172.027 44.7126V64.9367H182.626V70.1754H165.326Z" fill="white"/>
<path d="M124.025 70.1754V41.3013H130.726V70.1754H124.025Z" fill="white"/>
<path d="M156.798 70.1754C154.848 70.1754 152.899 69.0789 151.924 67.4951L146.686 58.9669H143.396V70.2973H136.695V41.3013H148.635C151.681 41.3013 154.117 42.1541 155.701 43.6161C157.407 45.1999 158.26 47.3929 158.26 49.9513C158.26 51.2915 157.894 52.6316 157.163 54.0936C156.432 55.4338 155.214 56.5303 153.508 57.3831L153.143 57.5049L161.305 70.1754H156.798ZM143.518 54.4591H147.417C148.879 54.4591 149.853 54.0936 150.584 53.3626C151.315 52.6316 151.681 51.657 151.681 50.4387C151.681 49.2203 151.315 48.2457 150.706 47.5147C149.975 46.7837 149 46.4182 147.538 46.4182H143.64L143.518 54.4591Z" fill="white"/>
<path d="M109.405 41.3013H101.73L90.8866 70.1754H95.638C96.8563 70.1754 97.9528 69.4444 98.3183 68.2261L99.4148 64.8148H111.111L112.816 70.1754H120.004L109.405 41.3013ZM101.12 59.6979L103.679 52.388C104.288 50.8042 104.897 48.9767 105.263 47.7584H105.385C105.75 49.0985 106.359 50.6823 106.847 52.388L109.405 59.6979H101.12Z" fill="white"/>
<path d="M254.751 68.9571V63.4747C256.822 64.4494 259.624 65.424 262.426 65.424C265.715 65.424 267.299 64.3275 267.299 62.1345C267.299 59.5761 265.106 59.3324 260.598 57.3831C257.553 56.043 254.751 53.9718 254.751 49.0985C254.751 43.4943 259.015 40.814 264.984 40.814C268.152 40.814 270.832 41.545 272.294 42.1541V47.5147C270.832 46.7837 268.152 45.9309 265.35 45.9309C262.426 45.9309 261.086 47.0274 261.086 48.8549C261.086 50.8042 262.791 51.4133 265.715 52.5098C269.492 54.4591 274 55.312 274 61.7691C274 67.3733 269.492 70.4191 263.522 70.4191C259.989 70.5409 257.065 69.9318 254.751 68.9571Z" fill="white"/>
<path d="M199.804 41.3013H203.947C205.896 41.3013 207.723 42.2759 208.82 43.9816L216.861 56.8958C217.714 58.3577 218.81 60.1852 219.419 61.5254H219.541C219.419 60.1852 219.419 58.4796 219.419 57.1394V41.3013H225.267V70.1754H217.957L208.211 54.5809C207.358 53.119 206.383 51.4133 205.652 50.0732H205.53C205.53 51.2915 205.652 52.7535 205.652 54.2155V70.1754H199.804V41.3013Z" fill="white"/>
<path d="M187.012 41.3013H193.713V70.1754H187.012V41.3013Z" fill="white"/>
<path d="M40.6919 0.243664C59.2103 2.19297 73.7083 17.7875 73.7083 36.9151C73.7083 57.261 57.261 73.7083 36.9151 73.7083C16.5691 73.7083 0 57.261 0 36.9151C0 16.5691 16.4473 0 36.9151 0C38.1334 0 39.4735 0.121832 40.6919 0.243664ZM42.6412 71.1498C61.5251 67.9822 74.3175 50.0729 71.1498 31.0671C68.4695 15.3508 55.6772 3.89862 40.57 2.31481C37.5242 1.94931 34.3566 2.07114 31.189 2.55847C27.4122 3.16763 23.8791 4.38595 20.7114 6.0916C37.2806 11.8177 46.2961 20.4678 46.9053 29.2397C47.2708 34.7221 44.7123 38.6207 41.301 41.7883L64.9364 40.2045C65.5456 40.2045 65.7892 40.9355 65.0582 41.1792L8.65007 57.261C14.3762 65.1801 23.2699 70.4188 33.1383 71.3935C36.3059 71.759 39.4735 71.759 42.6412 71.1498ZM27.1685 37.6461C30.2143 26.072 26.6812 13.8888 18.2748 7.43175C6.82259 14.7417 0.121832 28.3868 2.55847 42.6412C3.28946 47.3926 4.99511 51.6567 7.43175 55.4335C16.4473 52.9969 24.3664 48.2454 27.1685 37.6461Z" fill="white"/>
</svg>
